<?xml version="1.0" encoding="UTF-8" standalone="no"?><!DOCTYPE svg PUBLIC "-//W3C//DTD SVG 1.1//EN" "http://www.w3.org/Graphics/SVG/1.1/DTD/svg11.dtd"><svg width="100%" height="100%" viewBox="0 0 360 270" version="1.1" xmlns="http://www.w3.org/2000/svg" xmlns:xlink="http://www.w3.org/1999/xlink" xml:space="preserve" xmlns:serif="http://www.serif.com/" style="fill-rule:evenodd;clip-rule:evenodd;stroke-linejoin:round;stroke-miterlimit:2;"><path d="M82,270l0,-142l-82,-63l0,175c0,20 10,30 30,30" style="fill:#4285f4;fill-rule:nonzero;"/><path d="M78,127l102,77l102,-77l0,-98l-102,77l-102,-77" style="fill:#ea4335;fill-rule:nonzero;"/><path d="M278,270l0,-142l82,-63l0,175c0,20 -10,30 -30,30" style="fill:#34a853;fill-rule:nonzero;"/><path d="M0,67l82,63l0,-98l-30,-23c-27,-21 -52,0 -52,26" style="fill:#c5221f;fill-rule:nonzero;"/><path d="M360,67l-82,63l0,-98l30,-23c27,-21 52,0 52,26" style="fill:#fbbc04;fill-rule:nonzero;"/></svg>