<svg id="Layer_1" data-name="Layer 1" xmlns="http://www.w3.org/2000/svg" viewBox="0 0 1533.05 1800"><defs><style>.cls-1{font-size:160px;fill:#272525;font-family:Lato-Regular, Lato;}</style></defs><path d="M590.4,1644.14c-.13-.74-5.42,1-8.71-1.54-3.78-2.91-4.25-11-.51-15.87.4-.52,3.5-4.59,7.17-4.1,4,.54,3.92,5.91,8.2,8.7,5.12,3.35,10.4-1,25.09-3.58,10.31-1.8,18.27-3.19,22,1,4.67,5.24-.06,15.91-.52,16.91-4.08,8.94-14.39,16.81-24.58,16.38-7.89-.33-12.48-5.5-19-2.56-2.68,1.22-3,2.58-6.66,4.1-2.19.9-8.58,3.51-12.29.51s-3.37-10.79,0-14.85S590.54,1644.93,590.4,1644.14Zm28.17-54.29c2,4.35-1.91,7.59,0,10.75s8,3.63,12.29,2.05c3.59-1.31,5.34-3.83,7.68-6.65,7.75-9.36,10-7.75,16.39-15.37,5-6,12.7-15.21,9.73-22s-15.44-9.56-24.07-6.15-8.17,11-16.9,13.32c-7.66,2-11.68-2.82-16.9.51-4.72,3-6.9,10.45-4.61,13.83,1.58,2.33,4.25,1.2,10.24,4.61C615.6,1586.54,617.53,1587.63,618.57,1589.85Zm73-67.37c-1.15-1.87-6.75.48-7.42-.75-.88-1.59,9.46-5.53,9.73-12.8.14-3.79-1.36-9.15-5.12-10.76-7.21-3.08-17.37,9.9-18.44,11.27-3.4,4.35-10.45,13.36-6.66,20,3.25,5.68,12.78,6.61,19,4.1a17.82,17.82,0,0,0,8.71-8.71A2.63,2.63,0,0,0,691.55,1522.48ZM574.3,1501.82c-3-.26-6,4.55-7,8.35-1.22,4.49-.34,10.36,3.34,13.72,3.94,3.61,7.37,1,11.13,4.27,5.18,4.55,1.55,12.07,6.13,15,3.75,2.43,10.71.29,12.06-3.15,1-2.44-1.57-3.83-2-7.61-.93-7.47,7.84-10.27,8.72-18.18.82-7.28-5.39-15.93-10.76-16.14-6.34-.26-10.16,11.29-15.21,10C577.35,1507.3,577.32,1502.07,574.3,1501.82Zm52.88,8.72c-4.51.32-5.8-.45-7,.55-2,1.6-2,6.2-.19,9.46,2.29,4.18,5.78,3.1,10.21,8,3.52,3.89,3,6.41,5.38,7,3.72,1,9.64-3.81,9.83-8.53.14-3.53-3-4.55-2.6-7.24.67-4.19,8.71-3.8,15.4-9.27,6.43-5.27,10.39-15,7.61-18.56-2.92-3.78-14.59-2.56-21,3.53-5.38,5.14-5.63,12.45-11.68,14.1A34.6,34.6,0,0,1,627.18,1510.54Zm.37-39.34c3.72-3.57,5.65-3.37,8-5.56,4-3.75,3.91-9.63,3.89-11,0-2.11-.07-6.67-2.78-8.16-3.17-1.74-8.35,1.63-9.83,2.6-3.48,2.26-4.15,4.27-6.5,4.26s-3-2.23-5.38-2.22c-2.63,0-5.64,2.72-6.3,5.75-.9,4.07,3,6.17,1.85,10.2-.76,2.69-2.76,2.7-3,4.83-.39,4,6.19,9.5,10.58,8.35,1.26-.34,3.19-2.39,7-6.5C626.93,1471.89,626.75,1472,627.55,1471.2ZM691,1440.41c-8.3,2.73-12.54-.2-14.66,2.59-2.29,3,0,9.85,3.16,13.73,1.76,2.2,3,2.54,3.89,4.83,1.48,4-1.19,6.43.19,8.53,1.83,2.79,9.27,2.63,14.28-.74,2.81-1.89,2.55-3.22,7.24-9.09s5.72-5.48,8.16-9.09c3.1-4.57,7-13.44,3.9-16.89-3.57-3.93-14.91.74-17.63,1.86C694.8,1438.09,695.11,1439.05,691,1440.41Zm31.63,43.13c-3.64-.21-7.64,3.6-8.62,7.79-1,4.39,1.49,8.1,1.94,8.77,3.19,4.68,7.2,3.51,9.33,7.65,1.85,3.6-.63,5.57,1.25,9,2.2,4.09,8.4,6.55,12,4.59,2-1.13,2.78-3.47,3.75-6.54,1.43-4.51.45-6,1.53-8.77,1.43-3.59,4.37-4.09,9.47-7.51,2.69-1.81,13.9-9.33,12.66-15.31-.84-4-7.08-5.83-8.07-6.12a17.09,17.09,0,0,0-11.83,1.25c-8.67,4.11-9.33,12.59-13.92,12.39C728,1490.59,727.33,1483.82,722.63,1483.54Zm71,1.64c-7.46-2.14-9.51-1.56-10-.66-.7,1.19,1.44,2.75,2,7a23.12,23.12,0,0,1-.33,6.19c-.76,6-1.72,6.54-1.17,8,1.62,4.39,12.42,6.37,15.55,2.68,1.75-2.07-.29-4.28,1.5-9.53a18.42,18.42,0,0,1,4.35-7c4.14-4.06,7.47-2.89,9.2-6s.6-8.53-2.51-10.36c-3.35-2-7.86.79-11.2,2.84A25.59,25.59,0,0,0,793.66,1485.18Zm-27.59-24.91c3.68-2.46,4-5.47,6.19-8.86,6.22-9.8,17.31-6.87,20.23-14.88a11.08,11.08,0,0,0-1.67-10.37c-3.3-4.07-9.06-3.78-10.37-3.68-4.58.38-8.09,3.08-11.7,5.86-4.38,3.36-5.17,5.35-7.69,5.35-3.24,0-3.87-3.27-7.36-3.68-4.36-.51-9.71,3.84-9.53,7.35.14,3,4.07,2.7,6.52,7.36,2.22,4.24,0,6.48,2.67,12,1,2.09,2.06,4.24,4.35,5.18C761.34,1463.44,765.33,1460.77,766.07,1460.27Zm84.27-16.55c-5.39,3.82-13.08-2.26-15.88.83-1.77,2-.68,6.58,1,9.2s4,3,5,6.19c.63,1.94.08,2.7,1,4.18,1.48,2.36,4.43,2.9,5,3,2.73.49,6.61-.2,8-2.68,1.31-2.29-.76-3.88.34-6.69.74-1.9,2.25-2.58,7.19-5.35,5.37-3,8.06-4.52,8.86-5.35,2.77-2.87,5.77-8.79,3.18-13.54a9.79,9.79,0,0,0-8.87-4.85c-4.76.34-8.08,5-11,9.2C851.42,1441.77,852.07,1442.5,850.34,1443.72Zm6,39c-7.17,3.8-15.54,8.23-17.05,16.55-.85,4.64,1,7.53-1.17,9.36s-5.33-.18-7.7,2a5.88,5.88,0,0,0-1.17,6.69c1.45,2.44,4.65,1.2,6.19,3.51,1.89,2.83-1.84,6.34,0,9.36,1.68,2.76,6.43,2.56,7.53,2.51.51,0,6.38-.34,7.69-3.68.81-2.08-1-3.08-1-6.35,0-1.28.3-3.47,4.52-9.2,3.57-4.84,4.4-4.68,6.69-7.86,1.8-2.49,6.64-9.2,5-16.22-.67-2.87-2.7-7-5.85-7.52A5.69,5.69,0,0,0,856.36,1482.68Zm30.27-7.36c-5.8,3.34-6.07,3.13-6.53,3.85-1.45,2.26.35,5.94,4,13.2,2.82,5.6,3.43,5.52,4,8,1.33,5.8-1.49,8.23.33,11,2.07,3.18,8.56,4.48,12.71,1.5,4.61-3.31,3.61-10,3.51-10.53-.77-4.66-3.81-5-4.51-8.87-.76-4.2,2.39-6.16,7.69-15.38,2.74-4.77,5.64-9.9,7-16.72,1.11-5.48,2.2-10.83-1-14.38-3.35-3.72-10-3.93-14.38-1.67-5.77,3-8.25,10.64-8.53,15.88-.26,5.09,1.47,9.53-1.34,12.21A26.06,26.06,0,0,1,886.63,1475.32ZM905.35,1421c-5.54.68-8.54-.24-9.36,1.34s2.06,3.44,1.17,6.35c-.35,1.13-1,1.68-2,4.35-.48,1.32-.49,1.69-.33,2,.6,1.22,3.59,1.48,5.68.34,1.69-.92,1.48-2,3.18-3.51s3.42-1.79,6.35-2.34c3.7-.71,5.35-.22,8.2-.34,4.77-.2,12.32-1.87,12.87-5,.38-2.14-2.54-4.62-4.85-5.69-2.87-1.33-5.85-.8-11.7.33C908.86,1419.91,909.27,1420.5,905.35,1421Zm29.9-22c-3.34,2.08-5.46,3.47-5.29,5,.27,2.4,5.76,2.37,13.36,5.7a55.88,55.88,0,0,1,16,11c7,6.66,6.84,9.83,11.69,11.41s11.6.4,14.33-3.48c2-2.85,1.9-7.13,1.81-11-.1-4.14-.89-6.16.14-6.82,1.22-.78,3.28,1.48,9.18,4,4.86,2.11,6,1.65,6.4,1.39,1.86-1.07,2.38-4.52,1.54-7.09-1-3.18-3.53-3.12-4.32-6.12-.85-3.24,1.24-6.36,1.67-7,2.5-3.54,6.44-3.86,6.26-4.73s-4.79-1.66-9.18,0-6.07,4.83-7.38,4.17c-1.68-.84-.3-6.7,0-7.93a23.43,23.43,0,0,1,5.15-10.44c3.53-4,7.53-5.51,10.58-6.67s7.22-1.84,15.3-3.07c6.75-1,7.94-1,7.94-1.25,0-.87-15.78-4-33.26.14-7.66,1.82-13,4.41-19.2,7.38-14.37,6.91-12.89,9.51-26.44,15.72C948.33,1390.8,944,1393.52,935.25,1398.94Zm222.91,37.66c.23,1.48.44,3,.62,4.54,0,.24.06.48.08.72.19.94.7,3.48,2.71,4.77,1.06.68,2,.71,3.91.76,2.41.07,5.25.15,6.39-1.52,1-1.37-.06-2.8,1-3.79.55-.53,1.34-.61,3.68-.33,3.92.47,5.88.71,7.81,1.74a16.66,16.66,0,0,1,4.55,3.79c2.11,2.24,3.22,3.43,3.8,5.32,1.1,3.6-.31,7.91-2.6,10.51-1.35,1.53-2.35,1.72-3.69,3.8a11.18,11.18,0,0,0-1.84,4.55c-.46,3.46,1.31,9,5,9.76,2.81.62,5.52-1.77,6-2.21,2.39-2.12,3-4.94,3.37-4.82s-.33,1.92-.51,4.41.47,2.83.76,7.61c.1,1.53,0-.06.49,7,.17,2.53.23,3.35.35,4.69,0,.32.34,3.68.61,5.32.68,4.11,2.69,7.07,5.46,11.16,2.33,3.44,3.71,5.45,6.4,7.38a19.65,19.65,0,0,0,6.22,3,31.72,31.72,0,0,0,4.91.67c2.63.27,3.51.21,4.38-.27s1.9-1.34,1.81-2.35-1.4-1.37-3.41-2.66a23.73,23.73,0,0,1-4.66-4.11,51.89,51.89,0,0,1-3.74-5.3c-3-4.47-3.36-5.28-3.65-6.17a16.41,16.41,0,0,1-.78-5.21c-.08-5.89.71-9.3,1-12.89,0-.16,0-1.3,0-3.59.11-9.91,0-8.82.09-13.18a45.32,45.32,0,0,0,0-5.75c-.31-3.14-1.13-6-.94-6.06s.26.43.32.56c.81,1.92,4.89,5.13,9.41,4,3.66-.89,6.62-4.37,6.38-7.4s-3.93-4.76-8.16-7.4c-14-8.79-11.6-15-24.76-22.46-6.06-3.45-12.91-5.72-12.5-7.4.3-1.26,4.25-.54,6.12-3.32a5.13,5.13,0,0,0,.26-5.36c-2.51-3.63-12.53-1.65-12.53-1.65s4.26-3.41,4.62-3.71c4.08-3.37,8.72-20.79,1.78-38.28-4.9-12.36-14-19.09-19.39-23-20.64-14.85-43.57-14.19-67.12-13.52s-37.34,1.28-48.74,12c-10.47,9.85-13.22,22.94-14,27-3.14,16,1.91,28.68,4.09,34,7.9,19.08,22.69,28.69,35.47,37,15.12,9.82,29.87,19.41,48.23,16.84,4-.56,18.06-2,29.35-12.76A42.93,42.93,0,0,0,1158.16,1436.6ZM625.1,1835.4c4.72,24.07,29.21,40.78,38.71,47.06,34.15,22.57,72,18.49,90.71,16.19,28.25-3.46,31.81-10.75,67.85-22.08,36.39-11.44,109.81-34.51,172.79-13.88,10.88,3.57,28.56,9.61,54.18,10.84,14.1.68,27.94-.34,46.84-1.74,16.89-1.24,25.38-1.87,36.42-3.75a241.67,241.67,0,0,0,51.15-14.73,90.56,90.56,0,0,0,47.43-49.26,326.77,326.77,0,0,0,11.74-33.28c2.66-9.08,4-15.83,9.79-23.5a40.28,40.28,0,0,1,12.07-11.18c8-4.64,13.81-3.88,22.83-5.71,7.23-1.46,17.11-4.12,26.26-11.19,5.63-4.35,13.34-10.3,13.7-19.63.42-10.68-9.08-18.1-10.5-19.18a146.17,146.17,0,0,1,12.1-12.79c12.2-11.44,16-11.12,21.82-18.36,10.39-13,9.61-28.54,9.46-31.42,0-1.18-1.21-20.92-9.25-22.59-6.26-1.3-13.29,9.35-14.49,11.17-6.47,9.77-2.85,14.41-8.68,24.21-3.24,5.44-5.58,6.06-17.13,16.66-7.31,6.72-13,12.53-16.67,16.45,2.92-12,5-22.5,6.4-30.83,3.27-19,2.91-23.73,1.14-28.54-2.69-7.33-6.57-9.14-5.62-13.67,1.3-6.2,9.4-6.9,17.95-14.42,6.83-6,9.8-12.81,11.87-17.36.79-1.73,12-27.13,1.67-36.94a13.11,13.11,0,0,0-11.13-3.34c-8.28,1.67-11.75,13.16-12.43,15.41-2.81,9.32-.16,16.3-2,16.87s-5.94-5.84-8.23-12.11a56.91,56.91,0,0,1-2.9-21.29c.3-7.72,1.77-11.22-.77-14.12-2-2.22-5.71-3.45-8.41-2.3-5.68,2.42-5.26,14.67-5,22,.28,8.4.58,17.37,5.54,27.19,2.82,5.58,5.44,8.07,4.47,11.77-.58,2.24-2.12,3.53-11.68,9.18-12.74,7.53-14.56,7.93-16.42,7.24-2-.75-3.76-4.12-7.24-10.85-2.6-5-3.9-7.56-4.83-11-1.49-5.48-1.21-10-.93-14.29.69-10.83,3.61-15.49,1.49-17.2-1.93-1.56-6.68.45-9.81,2.91-12.41,9.76-8.4,33.83-7.9,36.8.78,4.68,2.38,19,11.61,32.83,3.51,5.26,6.44,8,9.65,15.12a60.65,60.65,0,0,1,5,19.3,62.92,62.92,0,0,1-3.87,27.62c-4.16,11.62-10.55,19.5-15.07,25.06-2.33,2.88-4.43,5.16-5.94,6.73-.31-6.3-.7-16.64-.63-29.43.14-26.79,2.16-37.16-.15-57-1.28-11-4-34.15-13-35.78-3.39-.62-6.44,2-7,2.5-6.56,5.64-3,16.1-1.84,40,.89,17.74-.29,27.24-1.17,32.6-1.39,8.55-4.22,20.25-6,20.07-1.21-.13-2.32-5.71-1.89-29.73-.29-15.53,0-27.92.22-36.15.29-9,.93-23.43-3.17-38.46a28.83,28.83,0,0,0-7.56-13.53c-2.15-2.09-6-5.81-11.41-5.94-6.9-.16-15.1,5.53-15.81,14.12a15.94,15.94,0,0,0,9.86,15.72,34.32,34.32,0,0,1,.47,20.86,27,27,0,0,0-16.35-3c-11.08,1.55-17.13,9.67-18.23,11.2-2.34,1.74-4.12,2-5.34,1.79-4.06-.52-5.23-5.48-11.88-13.83-5.17-6.5-7.64-7.48-8.48-7.78-5.51-2-11,.78-11.25.93-12.27,6.34-10,31-9.75,33.44,1.12,10.93,5.08,18.69,8.43,25.11,11,21.14,21.54,23.5,28.23,40.17,2.39,6,4.92,15.36,3.78,28.58a142.84,142.84,0,0,0-20.72-2.73c-10.48-.6-15.85-.85-22.35,1.45-6.8,2.42-11.28,6.32-14.9,9.45a70.76,70.76,0,0,0-12.35,14.18c-4.93,7.69-5.53,12-8.54,12.35-1.84.22-4.76-1-9.09-8.72a49.42,49.42,0,0,0,9.45-15.26c4.31-11.14,3.7-21,2.88-25.06q-1-4.82-1.93-9.62a28,28,0,0,1,4.68-8.75c2-2.45,4-4.07,10.72-8.54,10.71-7.09,13.64-8.32,13.63-10.9s-2.66-5.09-5.27-5.45c-4.58-.65-7.35,5.9-10.72,4.9-2.47-.73-1.55-4.44-4.79-7.52-3.6-3.41-10.44-4.24-14.47-1.56-4.59,3-4.4,9.92-6.18,9.81s-1.28-7.24-6-10a7.18,7.18,0,0,0-5.26-.87c-4.37,1.25-4.79,7.61-7.46,7.6-2,0-2.12-3.43-5.27-4.55-2.44-.86-5.93-.07-7.45,2-2.73,3.73,2.31,9.69.18,11.81-2,2-6.53-2.54-13.62-1.8-5.47.57-11.5,4.16-12,8.34-.41,3.23,2.83,4,5.48,10,3.36,7.55.12,10.68,3.09,14.35,4.48,5.54,13.61.66,18.72,5.82,2.13,2.16,3.91,6.43,1.81,15.81A72.67,72.67,0,0,0,966,1696.86a137.43,137.43,0,0,1,4.41-14.14c1.15-3.08,2.2-5.6,3.13-7.7,3.39-7.67,7-13.83,14.68-29,10.82-21.42,10.41-22.52,14.72-27.25a63,63,0,0,1,24.35-16.36c7.75-2.82,14.44-3.41,25.25-4.36,15.6-1.36,23.85,0,28.35-5.81,1.88-2.44,2.93-5.92,1.82-7.09-1.5-1.56-6.12,1.88-14,3.64a43.31,43.31,0,0,1-12.07.92,6.25,6.25,0,0,1,1-4c2.23-3.1,6.84-1.65,14.72-3.82.48-.13,8.9-2.49,8.72-4.54-.13-1.5-4.81-2.22-6.9-2.54-1.92-.3-10-1.4-21.26,2.54-6.81,2.38-8.38,4.36-9.09,5.45a12.09,12.09,0,0,0-1.7,7.46c-3.37.28-8.44.75-14.65,1.44s-8.82,1.1-9.82-.36,1-3.7,3.77-10.39c3.14-7.72,2-9.23,4.78-12.87.86-1.14,4.38-5.88,9.71-6.54,4.23-.53,5.95,2,12.16,4.49,7.38,3,13.75,3.08,19.37,3.14,2,0,17,.08,17.8-3.93.43-2-2.92-4.44-4.77-5.78-3-2.16-5.78-2.93-9.47-3.89-9.58-2.51-13.56-2.78-13.58-3.7,0-1.31,8-2.48,9.41-2.69,6.81-1,12.85-1.87,18.88.08,6.35,2,7,5.41,13.11,9.8,13.48,9.69,33.36,9.94,36.22,4.5,1.25-2.36-.57-6.1-1.74-7.79-.51-.73-2.24-3.35-7.88-5.83-7.36-3.24-12.64-2.45-12.82-3.85s4.74-2,11-6.72a34.91,34.91,0,0,0,5.9-5.7,20.3,20.3,0,0,0,3.3-4.79c.83-1.78,2.41-6,1.08-7-.77-.61-2.16.14-6.65,2.52-5.26,2.78-8.49,4.46-10.89,5.58-4.35,2-8.64,4-9.34,3.09-1.24-1.67,9.26-11.48,11.36-13.44,1.15-1.08,3.73-3.44,7.25-6.18a55.63,55.63,0,0,1,8-5.56c4.76-2.59,5.7-1.87,7.74-3.65,3.92-3.42,5.62-10.59,3.09-13.17-3.07-3.15-11.84,1.08-15.51,2.85-2.66,1.27-5.61,3.46-11.51,7.83-9.16,6.8-12.53,10.09-14.18,11.76-3,3-4.45,4.54-5.57,6.39-3.58,5.87-2.63,10-6.25,13-2.2,1.81-4.68,2.06-6.72,2.28-17.1,1.86-27,2.94-34.47,5-12.24,3.43-19.13,9.89-21.25,7.54-1.18-1.3-.06-4.42.81-6,1.31-2.35,2.76-2.39,7.46-5.78,4.3-3.11,4.35-4,6.92-5a17.65,17.65,0,0,1,6.92-.94c4.44,0,5.62.93,9.75,1.48a30.36,30.36,0,0,0,16.19-2.15c2-.94,4.9-2.27,4.92-4.11,0-2.19-4-4.16-7-4.91-5.43-1.38-9.87.23-10.12-.63-.19-.65,2.23-2,3.76-2.59a18.89,18.89,0,0,1,6.52-1.36c4.25-.22,6.43.71,7.13-.45.46-.77,0-1.87-.27-2.49-1-2.43-3.24-2.48-3.5-3.76-.33-1.69,3.19-3.21,7.39-6.45,2.8-2.17,4.47-4,7.82-7.73,3.86-4.27,7.76-8.59,6.64-10.43-.62-1-2.69-1.13-4-.78-2.08.52-2.84,2.23-3.3,2-1.22-.57,5.07-12.07,1.6-15.6a4.8,4.8,0,0,0-4.75-.81c-1.95.69-2.5,2.54-5.39,7.72,0,0-.22.39-2.7,4.61a77.3,77.3,0,0,1-9,12.54c-2.49,2.76-6.77,7.5-8.39,6.59-1.43-.8-.06-5.69.13-6.33,1.75-6.07,5.67-9.52,8.56-12.52,6.41-6.62,15.37-18.83,12.42-23.69-1.52-2.49-5.74-2.38-6.16-2.36-1.08,0-3.41.36-10.15,7-3.57,3.53-5.79,5.72-8.26,9.44a37.58,37.58,0,0,0-5.64,11.66c-1.41,5.26-1.29,10.12-1.18,14.34.16,6.47,1.07,7.8-.28,10-2,3.29-5.12,2.15-9.16,6-3.79,3.66-4.07,7.59-5.58,7.42s-2.27-4.32-2.8-7.49c-1.64-9.66.48-12.27-1.79-15.44-3.33-4.68-11.6-4.14-12.39-4.08-6.94.53-9.45,5.06-13.13,3.48-3.35-1.42-4.31-6.23-4.67-8-.81-4.14.29-7.45,2.51-13.9a68.94,68.94,0,0,1,6.1-13.87c2.37-4,4.09-6.32,6.88-11.41.4-.74,1.37-2.53.82-3.08-1-1-5.15,3.72-10,2.78-2.43-.47-2.47-1.88-4.61-2-3.84-.17-5.15,4.3-8,3.89-2.28-.32-2.1-3.19-6.16-6.27-2-1.5-2.25-1-5.45-2.81-5.77-3.28-7.65-6.52-9.08-5.83-1.61.78.39,5.1-1.82,7-1.42,1.22-3.35.4-8.44-.42-4.25-.69-7.93-1.28-11.76-.82-2.33.27-9,1-10.43,5.06-.82,2.37.3,5.67,2.52,7.54,4,3.39,8.82-.44,20,.75,3.89.42,7.51.8,11.18,3.14,5.83,3.7,8,9.92,8.91,12.64,4.21,12.64-.63,18.19,2.25,29.35,1.17,4.53,4,11.14,11.6,18.21-.4,5.29-1.1,12.82-2.37,21.83-3.12,22.13-7,34.3-8.92,39.7-1,2.8-7.38,21.18-10.57,20.5-1.07-.23-1.46-2.51-1.67-4.36-1.76-15.26,5.61-28.16,8.44-45.83,1.41-8.86,1.16-15.62.83-24.3-.6-16-3.16-22.88-4.27-25.61a50.12,50.12,0,0,0-8.67-14c-3.39-3.88-7.23-8.15-13.12-9-3.38-.5-7.82.07-8.45,2-.43,1.32,1.08,3,2.91,5,3.36,3.65,6.34,4.83,6.09,5.6s-4.47.27-6.72-.07c-9-1.37-17.24-2.85-17.24-2.85-8.54-1.61-10.94-1.85-13.79-.6-.79.34-5,2.3-5.18,5.35s3.56,5.3,6,6.8c6.65,4.07,10.61,3,22.69,6.77,5.83,1.8,7.9,3,9.72,4.62,3,2.76,4.38,6,5.7,9.17,1.73,4.18,3.85,11.3,2.48,12-1.69.83-5.42-9.69-16.28-15.84-7-4-16-5.59-17.54-3.06-1.1,1.79,1.77,5.38,4.73,9.09,5.69,7.1,9.79,8.81,18,16.69,4.93,4.75,7.4,7.12,8.44,9.84,2.32,6.06-.54,9.77-2.9,21-1.67,8-3.8,18-2,29.64,1.41,9.19,4.69,15.51,1.57,18.27-2,1.82-5.77,1.13-6.86.93-3.88-.72-4.7-2.84-8.54-5-5.75-3.25-13.72-4-17.41-.67-.24.22-2,1.81-1.64,3.28.55,2.19,5.39,2.26,5.42,3.51,0,.92-2.52,1.68-4.08,2.14-5.24,1.53-6.68.49-9,1.85-2.48,1.45-4.46,4.75-3.81,7.52.75,3.14,4.66,4.52,6.31,5.1,6.29,2.2,12.71.4,21.23-2.11,4.15-1.22,6.78-2.3,11.15-2.25,2.65,0,6.37.07,8.25,2.32,2.37,2.82.71,7.78-.92,12.33-5.36,14.93-10.4,26.59-13.27,34.33a140.83,140.83,0,0,0-5,16.6,66.75,66.75,0,0,0-15.31,5.44c-11.41,5.72-13.06,10.73-24.42,17.49-6.81,4-13.87,8.24-23.63,8.94-9.56.68-10.93-2.77-25.77-3.12-9.55-.23-14.79,1.11-15.85-1.2s3.86-4.83,8.92-12.9c5.49-8.76,3.57-12.08,9.47-21.09,4-6,5.92-9,9-9.93,10-2.92,16.09,16.25,34.67,19,10.08,1.5,19.25-2.52,23-4.14,4.75-2.08,9.82-4.29,13.9-9.76a27.58,27.58,0,0,0,5.15-18.84,27.13,27.13,0,0,0-10.91-18.39c-6.46-4.65-14.92-6.3-22-4.27-6.71,1.92-6.71,5.56-13.62,7.08-1.54.34-11.06,2.43-17.61-3.87-3.88-3.73-6.58-10.27-4.54-15.49.75-1.91,2.24-3.6,15.88-9.74,10.47-4.71,10.83-4.25,15.66-6.82,9.41-5,8.71-7.1,16.7-11.22,10.35-5.33,13.83-3,20.19-7.53,3.78-2.69,8.54-7.76,11.33-18.29.67-2.53,3.68-14.91-3.46-26.67A30.7,30.7,0,0,0,919,1537.86c-3.84.15-11.71.45-18.35,6.05-7.6,6.4-8.89,15.77-9.28,18.55-1.4,10.15,3.19,12.42.6,20.26-.82,2.5-1.07,1.61-9.87,13.81-6.28,8.7-6.8,10-9.68,11.89-4.89,3.13-7,1.53-11.86,5.09-5.2,3.8-5.25,7.4-8.3,7.62-1.47.1-3-.62-9.88-9.08-5.53-6.82-8.31-10.29-9.12-13.1-1-3.66-.55-7.48.45-15.12,1.32-10.1,3-11.86,1.43-15.74s-3.95-3.94-5.66-8.86c-.83-2.38-.94-4.44-1.11-8.45a77.12,77.12,0,0,1,.33-11.32,16,16,0,0,0-4.21-11.19c-4.34-4.43-10.19-4.36-13.36-4.32-1.78,0-8.91.1-14.32,5-6.32,5.77-6.38,14.6-6.45,25.6a50.3,50.3,0,0,0,1.61,14.92c2.44,8.72,5.76,10.26,9.46,18.31,5.87,12.74.5,15.27,5.76,26.44,5.75,12.21,14.65,14.48,13.41,21.38-.64,3.59-3.2,3.92-9.14,11.36a87.14,87.14,0,0,0-8.8,13.85A126.26,126.26,0,0,0,791,1691.09c-1.36,5.52-3.93,17.67-8.29,31.5-.72,2.29-2.25,7-4,7-1.54-.08-2.59-4.06-3-6.29-.7-4.28.27-7.63,1-10.46,1.26-4.74,2.16-9.57,3.17-14.36a173.76,173.76,0,0,0,4-26.93c.73-14-1.34-25-4.1-39.59a131.2,131.2,0,0,0-3.38-14.7c-3.68-12.36-6.53-14.54-9.88-23.82-6.22-17.2-1-22.44-7.32-35.44a49,49,0,0,0-13.25-16.5c-4.16-2.36-14.59-7.49-27.55-5.64a32.72,32.72,0,0,0-15.94,6.17,32,32,0,0,0-9.36,11.7c-3.29,7-3,13.26-2.69,19.93a79.29,79.29,0,0,0,6.51,27.31,222.16,222.16,0,0,0,11.17,22.83c5.84,10.39,8.92,13.93,12.85,21.4a107,107,0,0,1,10.53,31c3.53,15,1.35,24.81-1.44,31-2.17,4.87-5.75,9.88-8.67,19.9a92.51,92.51,0,0,0-2.55,11.73c-2.48,15.42-.43,22.75-4.36,24.73-2,1-4.75.31-6.38-1.08-3.53-3-1.32-8.94-.26-22a133.11,133.11,0,0,0,.28-18.73c-.34-5.13-.89-13.34-4.33-21.94-1.28-3.17-9.77-24.35-23-24.49-6.84-.07-12,5.51-17.58,11.48A59.7,59.7,0,0,0,650,1710c-1.95,9.53-3.79,17.1-5.1,22.2-2.56,10-3.74,13.18-3.57,19.14.2,7.2,2.19,12.27,1,12.75-1.51.62-6-7.32-6.38-7.91-4.48-7.91-3.14-10-6.38-15.05-.77-1.2-6.29-9.52-15.8-10.78-1.75-.23-7-.93-11.55,2.38-4.09,3-5.18,7.6-5.74,9.94-.24,1-.51,4.32,0,10.25.47,4.95,2.14,8.25,5.24,14.49,4.44,8.93,8.14,16.48,8.93,18.11a170.85,170.85,0,0,1,10,25.77C624.08,1823.12,623.86,1829.06,625.1,1835.4Zm546.06-344.71c-1.37-1.42.67-3.75-.11-6.9-.36-1.48-1.34-3.13-5.91-6.14a58.21,58.21,0,0,0-12.49-6.13c-7.3-2.65-11.41-4.15-17.42-4.6-4.15-.32-2.22.39-12.38,1.31-.86.08-2.85.25-3.5,1.54a2,2,0,0,0,0,1.86c.78,1.33,3.43,1,4.92,1,1.9-.08,4.92.6,11,2a51.16,51.16,0,0,1,13.58,5.47c6,3.15,7.28,4.91,8,6.47a8.75,8.75,0,0,1,.66,6.13c-1.1,3.54-4.33,3.49-6.9,6.68-3.44,4.27-2.52,10.33-1.76,15.34.7,4.58,1.46,9.55,5.37,13.15,2.31,2.12,6.25,2.94,14,4.49a126.69,126.69,0,0,0,17.3,2.19c8.09.61,10.29.25,12.49-.66,1.35-.55,6.7-2.77,7.45-7.34a6.86,6.86,0,0,0-1-4.82c-.7-1-1.82-1.89-7.45-3.28s-6.58-.31-7.78-1.54c-1.9-1.95.32-4.46-.77-10.84a23.72,23.72,0,0,0-3.17-8.33,12.9,12.9,0,0,0-4.28-4.6,13.16,13.16,0,0,0-3.94-1.42C1173.31,1490.8,1172.11,1491.67,1171.16,1490.69Zm77.84-74.22c-.7-2.11-3.86-3.23-6.23-3.26-5.15-.08-9.39,4.92-11,7.7-5.79,10.29,1.93,31.15,16.46,41.11,13.09,9,24,3.8,50.44,6.75,0,0,30,1.58,45.38,11.54,2.44,1.58,5.39,4,6,7.54.7,3.85-1.78,6.52-4.08,10.9-1,2-6.92,13.22-4.13,22.68,2,6.93,8.72,12.77,15.59,14.37,2.91.68,4.42.27,23.61-3.62,8.56-1.73,12.85-2.57,13.48-1.29s-2.2,3.72-6.4,7.54c-10.86,9.91-16.29,14.86-18.37,18-7,10.52-5.22,22.58-4.9,24.72.66,4.43,2.19,14.63,10.14,18.55.49.25,6.71,3.2,12.14.35,5.7-3,6.89-10.46,7.58-14.87.91-5.7-.57-6.09.24-10.16,1.32-6.73,5.91-8.58,14.45-17.89a87.07,87.07,0,0,0,12.88-17.39c4.07-7.45,6.93-12.68,6.13-19.3-1.24-10.24-10.44-16.42-12.7-18-3.41-2.31-8.73-3.8-19.36-6.77-7.68-2.16-9.16-2.07-10.34-1.85-9.18,1.68-13.45,13.6-14.65,13-1.42-.72,8.93-15.43,5-30-1.52-5.64-4.74-9.59-8-13.54a52.94,52.94,0,0,0-17.85-14.14c-3.35-1.61-9.17-4-22.14-5.17a219.27,219.27,0,0,0-52.48,1.64c-6.29,1.11-12.22,2.5-18.17-.61a21.12,21.12,0,0,1-10.53-14,17.35,17.35,0,0,1,0-8.84C1248.2,1419.33,1249.57,1418.15,1249,1416.47Zm-633.49-33.78c-11.76-.15-17.63-4-36.26-11-25.48-9.59-40.56-15.27-44.59-10.4-4.29,5.19,4.81,21.35,13.68,31.51,16.08,18.41,34.37,20.49,34.61,32.39,0,2.74-.8,8.57-.43,19,.09,2.57.22,4.54,1.49,6.54,2.88,4.54,10,6.63,15.15,4.75,3-1.08,3.7-2.87,8.33-8.32,3.76-4.43,8.13-8.31,12.18-12.48,9.24-9.51,13.86-14.27,14.27-14.57,6.29-4.53,13-5.5,28.24-5.94,18.05-.53,25.39.45,44.88.89,19,.43,16.6-.52,36.56,0,20.75.54,26.37,1.3,37.45,1.19,4.93,0,12.3-.28,21.37-1.2-1.52,4.48-1.22,8.6,1,10.5,1.77,1.49,4.17,1.18,7.69.61a40.61,40.61,0,0,0,15.64-6.36,55.46,55.46,0,0,0,9-7.28c28.2-6.77,52.06-13.79,70.7-19.75,24.74-7.92,50.38-17.2,67.17-37.75,8.24-10.09,8.37-15.55,7.14-18.73-2.29-5.9-10.78-7.71-19.32-9.21-36.79-6.48-51.27-5.5-51.27-5.5-39.45,2.66-74.58,7.62-94.78,10.77a162.33,162.33,0,0,0-43.89-16.57c-7.33-1.58-21.48-4.63-23.18-.89-2.28,5,18.9,19.77,20.8,21.1a117.84,117.84,0,0,0,11.6,7.14c-16,2.09-28.85,4.52-37.16,6.24-40.77,8.42-69.2,14.29-101.06,27C635.68,1379.2,627.24,1382.84,615.51,1382.69Zm716.07,24.86c-19-9.93-29-21.76-34.51-32.28-3.46-6.62-2.87-8.32-8.9-25.24-8.16-22.86-12.24-34.3-18.18-41.93-11.66-14.95-27.67-22.32-41.47-28.66-10.16-4.67-22.53-8.81-23.66-9.18a144.53,144.53,0,0,0-17.58-5.17c-39.87-7.85-93.7-18.45-124.9-12.09a107.59,107.59,0,0,1-23.65,2.47,100.46,100.46,0,0,1-18.11-1.59c-35.6-5.84-45-7.87-45-7.87-9.83-2.12-32.59-7.29-40.29,1.07a55.27,55.27,0,0,1-6.38,6,50.21,50.21,0,0,1-9.24,6.82c-3.69,2-4,1.38-8.54,3.72a34.91,34.91,0,0,0-8.37,5.56,16.7,16.7,0,0,0-5.36,7.87c-.36,1.28-1.55,5.53.72,9a9.41,9.41,0,0,0,5.66,3.75c6.91,1.93,12.06.41,22-.48a90.33,90.33,0,0,1,15.61-.48c5.06.35,9.51.69,14.77,2.84,4.13,1.69,5,3,10.29,5.41a65,65,0,0,0,10.66,3.84c-3.5,1.17-7.55,2.6-12.06,4.33-2.6,1-5.34,2.09-7.4,4.5a16.05,16.05,0,0,0-2.32,3.77,14.24,14.24,0,0,0-.87,3c2.27-2.51,4.46-3.54,6.46-3.77,1.81-.2,2.6.36,4.73.29,3.2-.1,5.23-1.47,7-2.32,4.16-2,5.47-.32,13.63-1.16,8.47-.87,9.35-2.87,16-2.9a34.73,34.73,0,0,1,10,1.44c2.9.44,5.34.7,7.15.85,4.76.42,6.08.18,11,.71,2.08.23,4.3.47,7,.9,1.43.23,2.48.43,2.94.51,2.42.46,6.25,1.13,12.4,2.09a19.39,19.39,0,0,1-5.16,2.83c-3.73,1.34-6,1-12.62.71a43.61,43.61,0,0,0-13.26.85c-3.28.8-6,1.45-8.62,3.71-5,4.33-5.86,11.15-5.41,11.36.18.09.62-.85,2.52-2.83.56-.58.84-.83,1.66-1.61,2.55-2.42,3.9-3.89,4-3.84a69.3,69.3,0,0,0-5,6.17,42.56,42.56,0,0,0-3,5.1,48.3,48.3,0,0,0,4.67-2.22c2.73-1.47,4.63-2.83,4.72-2.72a13.59,13.59,0,0,1-2.89,2.5,28.44,28.44,0,0,1-5.51,3.13,31,31,0,0,0,9.2-.46c6.54-1.33,7.94-3.88,14.66-5.36,4.5-1,3.58.22,11.42-.86a123.87,123.87,0,0,0,13.11-2.73s0,0,0,0h0l.88-.18c.94-.18,11.08-2.77,19.28-4,4.92-.76,7-.72,10-2.54a16.45,16.45,0,0,0,3.44-2.85c12.18,1.6,22.42,2.45,29.94,2.93a419.44,419.44,0,0,0,44.5.91c2.79-.12,9.23-.44,18.07-.3,5.89.09,10.69.35,13.73.55-1.28,5.11-.29,7.79.79,9.28s2.55,2.09,11.13,5.7c4.87,2,6.25,2.6,6.4,3.76.26,2-3.12,4.45-6.4,5.43-5.51,1.64-9.35-1.44-11.27.69a4,4,0,0,0,0,4.87c2,2.15,7-.57,8.07,1.12.85,1.34-2,3.54-1.25,5.28,1,2.18,6.68,1.6,8.77,1.4,1.63-.17,6.14-.74,14.33-4.46,6-2.72,9-4.13,10-6.4,1.51-3.42-.44-6.27,1.81-9.32a9.32,9.32,0,0,1,4.59-2.92c13.24-4.13,15.49,22.77,15.53,23.25h0c.68,8.47,6.17,22.67,20.22,38.13a125.69,125.69,0,0,0,35.62,27.09c15.75,6.73,49.69,18.52,91.28,11.5,31.13-5.26,57.4-19.52,57.06-20.53-.12-.34-3.33.49-4.74.83C1382.76,1434.42,1331.58,1407.55,1331.58,1407.55Zm32.44-18.72a98,98,0,0,0,30.58,11.33,92.82,92.82,0,0,0,24.49,2.21c3.4-.16,6.62-.6,13-1.48,14.11-1.92,15.84-2.78,24-3.55,9.5-.91,14.85-.81,19.75,2.29a21.23,21.23,0,0,1,7.82,9.43,30.07,30.07,0,0,0-4-12.47,29.64,29.64,0,0,0-11.12-10.92,29.34,29.34,0,0,0-12.61-3.58,53.87,53.87,0,0,1-4.22-3.43c-6.93-6.24-6.72-10.32-12.55-14.6a17.1,17.1,0,0,0-9.28-3.75,15.66,15.66,0,0,0-6.72,1.13c-2.88-3.49-7-8.2-12.13-13.49-3.88-4-11.57-12.8-22-19.75-21.55-14.31-32.33-21.46-47.19-21.31-9.93.1-12.39,6.8-23.84,6.22-2.87-.15-13-.66-19.12-7.74-4.58-5.34-4.54-11.74-5.46-11.6-1.08.16-1.93,9.06.63,18.51,1.51,5.59,5,18.49,15.27,24.48,2.38,1.38,5.89,2.84,5.71,4.61-.12,1.22-2,1.77-6.07,3.71-5.37,2.53-8,3.79-8.59,4.88-.43.86-1.39,3.84,13.07,19.59,8.69,9.46,13,12.72,14.79,20.12.78,3.22.78,6,1.43,6,1,0,3.3-6.94,1.72-13.75-1.5-6.44-7.25-9.68-6.47-10.73.31-.42,1.53-.41,5.55,1.49a48.68,48.68,0,0,1,6.7,6.85,50,50,0,0,1,9.78,21,37.94,37.94,0,0,0-1.75-26A97.56,97.56,0,0,0,1364,1388.83Zm147.42-2c-7.09-15.64-8.64-16-9.31-15.92-2.36.43-2.66,8.91-2.87,15.12-.35,10.07-.6,20.44,4.1,32.62,1.44,3.73,7.18,18.62,13.71,18.12,2.69-.21,4.5-3,5.14-3.92,1.49-2.27,3.26-6.69-1.8-23.35C1517.83,1401,1515.31,1395.35,1511.44,1386.81Zm-8.66,87.64a4.2,4.2,0,0,1,1.77,1.21c2.27,2.48,1.7,6.66,1.67,6.86-.83,5.51-5.81,8-5,9.28.55.9,3.35.46,5.47-.56s4.18-2.9,6.48-7.78c1.71-3.62,6.53-13.84,2.88-25.56a31.39,31.39,0,0,0-1.54-3.93,82.41,82.41,0,0,0,13.55.3c9.59-.57,18.13-1.21,26.28-6.41,1.34-.86,14.05-9.28,15.37-24.66.29-3.42.71-15.32-8-23.32a26.39,26.39,0,0,0-14.67-6.42,28.43,28.43,0,0,0-15.63,2.56c-2.16,1.06-7.15,3.91-6.68,5.39.71,2.19,12.09-3,23,2.15,1.85.87,7.29,3.44,9.67,9.24,2.31,5.6.47,11.12-.58,14.27a22.91,22.91,0,0,1-5.57,9.47c-1,1-4,3.7-13.71,6.12a117.85,117.85,0,0,1-29.34,2.45c-12.35-.41-11.69-1.18-19.25-.92-16.6.57-28.92,5.48-29.31,4.32s10.62-4.93,10.06-7.38c-.27-1.17-3.09-1.44-4-1.52-6.52-.62-11.79,4-13.68,5.79-1.26,0-2.53.08-3.81.1-1.62,0-3.22,0-4.8.06,1-2.22.95-4.35,0-5-1.23-.88-3.75.69-5,2.21a7.23,7.23,0,0,0-1.59,4.18c-2.58,1.94-4.62,3.61-6,4.79-3.83,3.22-4.59,4.22-6.62,4.71-2.82.7-4.17-.51-5.5.61s-1.56,4.12-.61,6.12a5.33,5.33,0,0,0,.64.94,47.92,47.92,0,0,0,3.74,4.57c4.84,5.14,7.26,7.71,10.31,8.84a42.57,42.57,0,0,0,7.37,1.72c3.09.56,4.61.64,6.39,1.92.48.35,2.86,2.07,2.73,4.29,0,.51-.2,1-1.13,2.39-2.29,3.37-4,4.43-3.77,5s3.4,0,5.86-1.16a14.8,14.8,0,0,0,5.86-4.92c.93-1.37,1.75-2.58,1.67-4.18,0-1-.43-1.42-.16-2.08.5-1.26,2.8-2,4.43-1.35,1.93.78,2.61,3.42,2.5,5.29-.25,4.19-4.68,6.48-4.17,7.23s4.41-.3,7.24-3.11c2-2,1.7-3.54,4.72-7.56a9.63,9.63,0,0,1,2.51-2.69c1.76-1,2.86-.42,7.51-.55,3.69-.11,4.62-.54,5.57.28s1,2.14,1,4.63a29.81,29.81,0,0,1-1.86,9.64c0,.08,0,.16-.09.29-1.75,5.36-4.2,7.42-3.49,8.18s5.15-1.54,8.41-4.65a25.51,25.51,0,0,0,7.42-15.13,24.47,24.47,0,0,0-.1-6A4.66,4.66,0,0,1,1502.78,1474.45Zm10.34-181.39c-1.37,2.17-8.8-2.72-18.91-1.26-3,.42-7.09,1-10.09,3.78-3.67,3.38-4.54,9-1.68,29s4.37,30.08,9.24,33.21c5.54,3.56,13.92,3.29,24.38,3,5-.17,5.66-.63,9.67-.43,10.16.53,11.79,3.79,19.34,4.21,6.14.34,16.55-1.19,20.18-7.57.24-.42,1.28-4.35,3.36-12.19,1.43-5.38,1.8-6.81,2.94-7.14,2.74-.81,4.58,6.18,11.54,8.77,4.05,1.5,7.83.77,11.58,0,4.45-.85,8.48-1.63,11.35-5,4-4.78,3.06-11.47,3-12.19-.88-5.5-4.36-8-3-10.93.91-1.86,2.59-1.4,4.21-3.36,1.47-1.8,1.86-4.36.42-12.2-1.49-8.1-2.24-12.15-4.21-15.55a28,28,0,0,0-10.93-10.93c-8.2-4.37-17.65-3.45-18.49-3.36-4.37.47-7,1.7-9.67,0s-2.2-4.18-5-6.31c-1.14-.85-3.21-1.94-9.25-1.68-5.56.24-9.57,1.41-14.72,2.94-12.2,3.64-18.39,5.53-22.7,8.83-4.61,3.53-5.3,5.82-5.46,7.15C1509.63,1288.4,1514.19,1291.35,1513.12,1293.06Zm126.54-37.45c-.73,6.05-.33,7.32,0,8.11a11.22,11.22,0,0,0,5.65,5.4c4.45,2.2,8.8,1.28,13.76.25,4-.85,5.91-2,7.12-2.95a14.13,14.13,0,0,0,3-3.2c1.53-2.2,1.3-3.06,2.27-3.47,1.31-.57,2.33.75,6.32,1.85,1.69.46,3,.62,3,.44.14-.42-6.42-1.79-7-5.2a5.3,5.3,0,0,1,.22-1.79c.43-2.07,1.08-5.17,3.07-5.93.61-.24,1.69,0,3.84.4a27.35,27.35,0,0,0,3.23.66c.08-.23-5.74-1.5-6.08-4.13a5.68,5.68,0,0,1,.8-2.63c.71-1.63,1.31-2,1.75-2.16l.29-.06c.56-.07,1.38.15,4.3,1.27s3.82,1.44,3.9,1.3c.19-.35-5.81-2.25-6.58-6.1-.44-2.17.45-4.91,2-5.49,1.08-.4,3.45.83,8.15,3.3a5.28,5.28,0,0,0,1,.46,44.2,44.2,0,0,0-4.52-3.38c-2.36-1.68-3-2.12-3.14-3a3.05,3.05,0,0,1,1.49-2.64c2.91-1.87,9.07,2.86,9.17,2.69a30.7,30.7,0,0,0-3.07-2.15c-2.67-1.81-4-2.82-4.14-4s.51-2,1.83-4.1a9.54,9.54,0,0,1,2.09-2.73c3.17-2.14,9.56,2.17,9.68,1.93s-2.26-1.86-6-4c-.65-.37-1.7-.71-1.86-1.53-.12-.63.39-1,1.06-2.59.61-1.45.39-1.62.74-1.93.9-.77,2.55.22,5.78,1.13,2.52.71,4.79,1,4.86.8.15-.48-9.18-3.88-8.8-5.44,0-.06,0,0,.82-1.28.63-1,.59-1,.64-1,.73-.77,2.2-.19,4.61.07,1.76.19,3.43.14,3.46-.07.06-.38-5.86-.43-6.85-3.12-.24-.65.31-2,1.4-4.59,1.49-3.6,1.91-3.92,2.18-5.52.42-2.49-.4-3,.18-4.17,1.52-3.15,8.38-2.64,8.35-3s-3.47-1.15-7.12,0c-.89.28-2,.75-2.92.23-.62-.35-.73-.89-1.44-2a15.22,15.22,0,0,0-2-2.52,10,10,0,0,0-4.74-2.37c-2.36-.59-3,0-3.73-.69-1.88-1.72-.7-6.06-.77-6.07s.37,4.14-1.88,6.19c-1.29,1.17-2.31.63-5,1.6-1.77.64-1.83,1.49-2.57,1.42-1.51-.14-3.58-6.63-3.74-6.58s.43,2,.83,3.59c.86,3.56.79,4.09.59,4.54-.56,1.25-1.53.64-3.61,2.38-1.92,1.6-2.61,3.38-4.37,3.38a1.76,1.76,0,0,1-.36,0c-2.89-.6-3.81-6.92-4.26-6.79-.24.07-.06,1.75.45,3.67.92,3.45,2.39,3.95,2.22,5.88-.09,1-.42.76-1.76,3.67s-1.19,3.47-1.91,3.82c-.92.44-2.41-.54-5.5-2.29-2.51-1.43-5.44-3.22-5.5-3.14s9.82,6.4,8.79,9.25c-.13.34-.33.42-1.45,2.21s-1,1.89-1.3,2.07c-2,1.39-8.64-4.91-8.79-4.74s1.58,2.09,4.66,5c1.45,1.39,2.24,2,2.3,3.17a4.9,4.9,0,0,1-1.53,3.28,2.44,2.44,0,0,1-.55.43c-4,2.3-11.25-3.13-11.42-2.8-.08.15,1.49,1,3.23,2.36,2.23,1.77,4.44,3.53,4.8,6.15a8.62,8.62,0,0,1-.49,3.67c-.68,2.34-1.2,2.86-1.42,3a3.63,3.63,0,0,1-2.42.4c-1.78-.09-2.43-.69-4.78-1.23-1.13-.27-2.67-.52-2.73-.32-.14.47,8.06,2.3,8.17,5.22,0,.44-.65,1.52-2,3.66a11.12,11.12,0,0,1-1.65,2.3c-2.37,1.48-6.71-1.53-6.9-1.16-.08.17.86.84,1.32,1.15,2.72,1.88,3.64,1.63,4.2,2.52s.15,2.29-1.5,6.21c-.77,1.8-1.46,3.42-2.08,4.83-.1,0-.24.1-.43.16a5.43,5.43,0,0,1-3.13-.44c-2.84-.56-5.22-.36-5.25-.15s6.74.26,8.19,3.56C1640.89,1251.34,1640.11,1251.88,1639.66,1255.61Zm-36.58-36.06c-.21-1.75.85-3.4,3-6.63,1.81-2.75,3-4,5.41-7.58s2.6-4.31,2.3-4.74c-.58-.83-3-.12-5.68.68a16.18,16.18,0,0,0-5,2c-2.52,1.71-2.06,2.88-4.6,5-1,.88-4,3.35-6.9,2.7-1.66-.37-1.88-1.43-4.2-3.24a22.51,22.51,0,0,0-7.17-3.52c-4.39-1.55-8-2.84-10-1.09a5.14,5.14,0,0,0-1.35,3.66c-.07,2.72,1.81,3.52,2,6.77.07,1.06.18,2.71-.81,3.65s-2.5.66-6,0c-7.45-1.42-8.83-1.82-9.74-1-1.18,1.13-.69,3.58-.14,4.87.31.72.94,1.82,4.34,3.93,3.63,2.27,5.75,3.58,8.93,4.06,1.9.28,2.75-.19,4.11-.12a4.53,4.53,0,0,1,1.38.23c1.94.71,2.61,3.75,2.9,5.57,1.09,6.92-1.27,9.23-.14,15.16.45,2.32,2.48,3.16,3.12,6.36.46,2.37,0,3.52.5,3.74,1.37.6,7.57-6.4,10.85-15.62,1.46-4.09,2-7.18,3.8-7.74,2-.6,2.82,2,7.45,3.92,4.14,1.76,5.19.63,11.77,2.58,4.16,1.22,5.06,2.06,5.69,1.48,1.77-1.63-2.31-11.32-8.26-16a31.79,31.79,0,0,1-4.33-4.06C1604.34,1222.45,1603.29,1221.25,1603.08,1219.55Zm-84.22,33.37c.75-1.05-1.44-3.31-2.6-5.53-5.72-11,9-29.66,12-33.5,5.42-6.89,14.38-18.26,29-21.47,9.09-2,11.15,1.2,24.39-1.3,5.69-1.08,13.32-2.59,21.47-7.81,4.11-2.63,12.25-7.84,16.92-18.21.32-.73,6.93-16,0-30.58-.55-1.14-5.77-11.83-12-11.71-.3,0-3.27.1-3.9,1.63-.56,1.34.94,3.13,1.3,3.58,3.63,4.57,5.1,17.13,4.55,23.74-1.12,13.63-12.85,26.65-25.37,29.6a26.16,26.16,0,0,1-6.5.65c-15.65.15-39.63,7.08-54.65,22.12-14.42,14.43-22.19,37.94-15.29,45.54C1511.08,1252.92,1517.79,1254.42,1518.86,1252.92Zm141.31-95.79a12.1,12.1,0,0,0,3.11-4.06c1-2.28,1.23-5.18.47-5.5-.5-.21-1,.91-2.62,1.67-1.15.52-3.13,1-4.31.24s-1-2.82-1.19-6c-.27-4.18-1.24-7.1-2.63-11.23-1.16-3.47-2.28-5.58-4.06-7.41-2-2-3.22-2.13-3.58-2.15-2.82-.12-5.59,3.23-5,4.78.5,1.37,3.25.36,5.25,2.39.79.79,1.1,2.53,1.68,6,1,6.19.68,7.75.24,8.84s-.68,1-1.2,2.39c-1.11,2.93-.73,5.1-1.43,5.26s-1.1-1.78-2.39-1.91a2.84,2.84,0,0,0-2.63,2.63c0,1.27,2,1.61,2.63,2.86,1.34,2.62-4,7.34-7.65,11.71-2.66,3.16-12,14.2-9.32,23.18a12.52,12.52,0,0,0,7.17,7.88c8.94,3.44,23.16-5.74,25.57-16.24,2-8.76-3.46-21.55,0-23.9A14.93,14.93,0,0,0,1660.17,1157.13Zm93.61-19.24c3.64-2.83,4.3-8,3.22-11.38-1.31-4-4.86-4.64-14.38-9.44-12.87-6.48-17.14-10.77-27-12-5.44-.68-7.46.2-8.37,1.51-1.6,2.31.23,6,.64,6.86-1.2,1-2.87,2.24-4.93,3.65a93.76,93.76,0,0,1-8.59,5.15c-8.4,4.36-12.86,4.18-23.6,9.44-4.33,2.13-5.85,3.26-5.8,4.51.09,2,4.34,4.08,8.16,3.86,3.5-.2,5.53-2.25,8.58-4.5,4.16-3.08,3-1.2,16.74-8.37,10-5.2,12.25-7.05,16.74-6.66a17,17,0,0,1,7.73,2.79c6.1,4,7.81,10.36,8.36,12.45.89,3.3.79,5.85.65,9.44a57.11,57.11,0,0,1-2.36,13.52c-1.82,6.26-3.19,7.75-4.72,14.38-1.14,4.93-1.69,7.42-.43,8.58,2.29,2.13,9.36-.87,13.95-4.93,7-6.18,8.39-15,9.22-20.17a48.9,48.9,0,0,0-.21-16.74A10,10,0,0,0,1753.78,1137.89Zm-108.43-70c9.85-13.79,9.52-17.41,9.24-18.86-.59-3.09-2.85-6.51-5.55-6.84-3.48-.42-6.57,4.46-9.61,9.25a64,64,0,0,0-7.58,17.19,35.09,35.09,0,0,0-20,.93c-4,1.44-13.84,5-16.08,13.49-1.85,7,2.52,13.4,5,17,4.71,6.88,15.89,17.66,26.81,14.61,6.25-1.75,9.35-7.17,15-17,3.29-5.75,6-10.57,4.26-15.72a14.06,14.06,0,0,0-6.48-7.39C1641.61,1073,1643.35,1070.69,1645.35,1067.9Zm81.88-33.09a67.41,67.41,0,0,1-12.38.74c-8.84,0-16,3.14-20.43,5.07-8.17,3.59-13.38,8.06-17.9,11.94-4.09,3.5-8.15,7-11.93,13-4.66,7.31-5.24,12.52-5.37,14-.29,3.39-.72,8.39,1.94,10.29s6.21-.49,18.49-6.41c16.16-7.8,16.16-6.86,23.42-11.19s7.59-5.5,15.06-9.54c3.65-2,7.08-3.6,13-7,3.07-1.78,5.54-3.31,7.16-4.33a28.53,28.53,0,0,0,7.61,4.33c3.88,1.46,7.39,2.79,10.44,1a7.55,7.55,0,0,0,3.73-6.86c-.48-4.14-6.16-8.16-13.87-7.31a53.75,53.75,0,0,0,13.57-3.28,49.14,49.14,0,0,1,10-3.28c3.91-.75,6.56-1.26,7.9,0,2.35,2.2-.8,8.36-3.87,16.26a142.43,142.43,0,0,0-8.21,38.62c-.46,8.24.3,12.58,3.28,15.36,3.69,3.44,9.75,3.58,10.44,3.58,1.51,0,3.41-.33,3.43-.74s-3.37-.67-6.56-2.24c-1.69-.83-5.36-2.63-6.56-6.41-.56-1.76-.17-2.84.3-6.12.69-4.78.27-5.3.74-10.44.64-6.85,1.33-14.2,4.63-22.07a126.62,126.62,0,0,1,6.41-12.68c1.92-3.26,3.68-5.89,3.88-9.84.1-2,.23-4.65-1.34-6.71-3.26-4.25-11.59-2.93-20.59-1.49a82.41,82.41,0,0,0-8.94,1.94,32.34,32.34,0,0,0,5.22-8.2c.39-.91,4.39-10.13,2.08-11.79s-11.27,5.24-16.4,10.44c-4.29,4.35-6.15,7.65-11.33,9.7A31.3,31.3,0,0,1,1727.23,1034.81Zm-12.43-21.21c6.47-2.2,9.79-3.11,14.77-5.54,6-2.92,7.19-4.51,7.79-5.54,1.81-3,2.63-8.19-.2-10.87-1.73-1.64-4.77-2.3-6.77-1.23-1,.52-1.53,1.37-2.67,3.08-1.51,2.28-1.33,2.94-2.25,3.9-1.85,1.91-5.64,2.45-6.57,1.23-1.37-1.81,5.28-5.75,4.31-11.7a13.12,13.12,0,0,0-6.16-8.82c-2.46-1.46-5.13-1.89-13.74-.82-13,1.63-19.58,2.44-22.77,6.57a18.45,18.45,0,0,0-3.49,11.48c.2,5,2.6,7.56,1.23,9s-3.88-1.12-11.69-1.64c-1.31-.09-3.41-.16-4.1-1.44-.4-.72,0-1.26,0-2.87,0-.8.08-4.09-1.23-4.72s-4.08,1.28-4.93,3.7c-.62,1.78.3,2.43-.41,4.3-.58,1.56-2.06,3.31-3.9,3.49-1.19.12-2.17-.46-3.48-1.23-2.13-1.25-2.28-2.18-3.28-2.26-1.89-.13-4.49,2.94-3.9,4.93.51,1.73,3.13,1.64,8.41,3.69a51.42,51.42,0,0,1,7.79,3.9c6.53,4.17,5.57,7.72,9.85,10,2.68,1.46,8.32.24,19.49-2.26,5.07-1.13,9.94-2.23,16.41-4.3C1708.3,1016.11,1707.17,1016.19,1714.8,1013.6Zm-263.12,289.55c.23,16.89,4.37,29.52,7.45,38.67a111.44,111.44,0,0,0,9.25,21.38c8.49,14.85,20.7,27.63,22.44,26.45.62-.42-.16-2.53-.6-3.76-2.4-6.66-6.43-22.39-14.49-53.84a220.1,220.1,0,0,1-5.28-27.54c-2.37-19.42-3.9-33.26,3.62-41.22,1.12-1.19,5.17-5.12,10.27-11.38s5.14-7.39,4.88-7.69c-1.25-1.4-12.71,9.69-17.56,6.62-3.32-2.1-1.75-9.74-3.32-9.94-1.12-.14-2.5,3.39-3.66,6.38-6.54,16.85-6.35,16.2-6.49,16.68C1454.86,1275.49,1451.47,1287.21,1451.68,1303.15ZM1275.13,795.51c9.65-48.62,11.64-74.65,11.64-74.65,1.13-14.82.77-18.42,3-27.26,5.85-23.15,18.48-32.39,13.88-48.71-1.76-6.26-3.82-6.62-5.78-14.46-3.82-15.24,2.14-21.09,2-41.49-.06-11.38-.14-24.82-8.09-29.05-4.81-2.56-11.75-1.35-15.9,2.17-5.64,4.77-2.86,11-6.22,21.83-4.39,14.14-11.47,10.92-20,29.05-6.11,13.07-9.17,19.61-9.41,25.56a16.51,16.51,0,0,1-2.93,9c-1,1.4-2.17,3-4.25,3.45s-4.62,0-5.42-1.61c-.93-1.83,1.52-3.43.73-5.72s-3.93-3.25-6.08-3.3c-1,0-2.89-.06-4,1.17-1.29,1.5-.21,3.51-1.54,4.55-.88.69-1.58,0-2.86.51-2,.87-3.08,3.89-2.78,6.38.06.52.38,3.19,2.34,4.32s4.07-.19,6.67-.69c6.3-1.22,14.32,2.74,15,6.86.49,3.07-3.13,6.12-6.24,8.74-6.75,5.69-11.09,5.75-15.6,8.74-11.12,7.37-13,25.82-10,27.46,2.42,1.32,7.66-8.59,23.09-15,3.83-1.59,5.75-2.38,6.86-1.87,9,4.14-4.35,62.59-27.46,113-21.75,47.4-48.21,79.08-64.74,98.59-14.81,17.48-22.17,26.28-33.23,33.94-16.84,11.66-36.75,19.11-106.05,24.74-70.77,5.76-92.43,1.44-122.3,16.26-18.94,9.4-33.77,16.76-44.54,31.82-5.1,7.13-9.06,15.67-19.8,24-4,3.14-8.9,6.17-15.55,12.73a71.55,71.55,0,0,0-9.9,11.31c-8.37,12.58-12.57,29.83-8.48,32.52,2.88,1.89,11.75-4,16.26-12,5-8.88.41-12.83,4.24-21.91,4.12-9.76,10.81-8.5,26.87-24,10.42-10.09,10.83-13.88,14.14-13.43,10.53,1.42,3.54,35.29,26.86,62.21,6,7,13.42,11.79,19.09,24,4.75,10.25,3.58,15.36,2.91,17.42-1.86,5.72-6,6.62-10,13-1.62,2.57-3.6,6.66-4.68,18.53-.42,4.56-1.74,21.71,5.52,53.29,3.17,13.81,5.17,18.1,8.35,18.67,3.85.69,8-4.53,10.6-8.49-.58-10.54-1.55-19-2.32-24.78-1.44-10.83-2.66-15.56-1.42-23.23,1.2-7.44,1.93-11.94,5.68-15.61,5-4.94,11.67-4.56,20.69-13.43l.5-.51c3-2.95,14.79-14.42,17.88-12.22s-7.92,15.55-12.73,41c-1.08,5.76-1.73,10.08-1.46,14.41.17,2.94.52,3.59,1.19,9.42.5,4.32.51,5.7,1.06,12.59,1.14,14.15,1.67,15.55,3,16.67,3,2.51,8.8,2.54,11.7-.18,4.51-4.21.07-13.12-1.18-22.67-2.7-20.75,12.07-41.61,23.85-55.69,13.8-16.5,27.22-16.35,36.48-26.48a33.51,33.51,0,0,0,5.94-9.57c.69-1.47,1.19-2.7,1.57-3.76,1.11-3.09,1.69-5,1.9-5.54,1.55-4.23,14.32-6.74,28.52-4.12,10.33,1.9,21.73,4,26.86,13.08,2.54,4.51,1.52,11.65-.51,25.92,0,0-3,21.19-11.34,36.64-.73,1.35-1.11,2-1.72,3-5.43,8.5-9.85,8.4-11,15.08-2,12,12.82,16.66,15.07,37,1.09,9.81-.39,16.36,4.12,19.88,6.62,5.17,22.92,1.22,26.72-7.54,5.13-11.81-16.87-23-13.7-43.86a16.52,16.52,0,0,1,.35-1.85,67,67,0,0,1,6.81-17.2c7.2-12.33,4.38-25.06,15.63-46.3,5.38-10.15,12.26-19,13.5-18.37,1.07.57-2.82,7.92-6.82,21.15-5.82,19.28-2.13,18.83-7.63,36.92-1.8,5.92-4.69,14.18-4.34,25.81a25.07,25.07,0,0,0,.31,4.64c2,10.56,5.62,16,13.71,30.15,7.86,13.73,7.95,16,11.54,17.2,6.57,2.18,16.1-2.2,19.29-9,4.56-9.64-7.8-19.73-13.7-37.69-10.4-31.6,8.31-65.66,20.19-87.28,8.12-14.8,9.37-12.19,28.46-41.54,0,0,16.87-25.93,29.47-49.34,22.19-41.23,15.76-56.51,37.69-126.09C1259,838.18,1267.14,835.74,1275.13,795.51ZM990.66,1176.85c-1.84,4.1-.63,5.62-2.4,8.11-.73,1-1.69,1.64-3.6,2.85-4.13,2.63-5.54,2-7.51,3.91s-3.35,5.24-2.25,7.06c1.21,2,4.93,1.17,5.4,2.85.25.89-.66,1.52-1.5,3-1,1.81-1,3.33-1,8,0,9.08.07,8.46,0,9.16-.58,6-2.39,7.54-1,9.62,1.08,1.68,3.3,2.24,6.31,3,2.28.58,3.16.33,3.6.15,1.5-.61,1.47-1.78,2.85-2.55,1.15-.64,1.91-.26,5.41.15,4.18.48,4.18.05,6.91.6a17.9,17.9,0,0,1,5,1.5c3,1.52,2.9,2.89,5.86,4.8,1.62,1,4.37,2.84,7.66,2.26a8.8,8.8,0,0,0,5.56-3.76c1.9-3.18.24-6.13,1.8-7.06,1.09-.64,2.71.32,5.7,2.11a22.71,22.71,0,0,1,6.46,5.25c2.2,2.67,2.29,4.14,2.85,4.06,1.59-.24,3.61-12.34-2.25-21.93a19.34,19.34,0,0,0-6.46-7.06c-2.64-1.62-4.55-1.73-10.06-4.65-2.82-1.5-4.11-2.42-4.5-3.91-.51-1.92.79-3.75,1.45-4.79,3.74-5.8,6.54-16.1,3.35-21.19-2.07-3.31-6.12-3.53-6-5.85.08-1.6,2.25-1.51,3.75-4.06,2.58-4.38,2.05-9.6,1.8-12-.45-4.47-1.67-6.08-.45-7.81s3.27-1.08,4.51-3,.75-4.83-.75-6.76c-1.26-1.61-3.76-3.17-5.41-2.41-2.17,1-1.45,5.38-3.6,6a2.8,2.8,0,0,1-1.81-.3c-4.19-1.51-10.89-.23-14.56,3-1.17,1-1.76,2-2.86,1.95-1.37-.08-1.57-1.89-3.75-2.86a6.59,6.59,0,0,0-4.36-.75c-2.64.67-4.74,3.47-4.2,5.11s3.26,1.26,4,3.3a4,4,0,0,1-.15,2.71c-1.15,4.09-2.22,4.9-2.85,7.35-.21.84-1.29,5.41,1,8.21,1.32,1.59,3,1.64,3.32,3.21C992.11,1174.47,991.48,1175.05,990.66,1176.85Zm-216.44,77c5.32.48,12-12.75.69-10.54-4.47,1.15-6.24,6.25-7.76,5.64-1.85-.84-.45-6.62-1.06-6.84-4.37-1.64-3.66,5-7.86,5.36-.81.79,2,7.32.23,8.51-5,.8-9.19-8.62-13.73-5.5,2.12,5.88,15.75,10.82,1,13-10.41-.09-34.44,26.57-8.5,9.29,9.19-5.83,4.45,3.33.5,5.27-5.9,3.23-6.82,2.72-13.36,7.31-11.64,5.67-11.22,7.56-19.78,14.56-10.72,6,2.81,4.14,6-.19,6.39-4.7,7.3-2.71,10.4-6.15,1.65-3.55,12.84-8.54,4.67-.23-6.51,5-13.84,9.75-20.43,14.89-5.2,3.52-24,10.44-20,16.82,6.07-.14,18.77-14.79,25.75-16.64-3.75,8.36-19.23,18.12-27.41,25.14-4.62.64-6.41,1.19-1.9,3.36,2,.56,4.07-1.14,5.36-1,3.43,2.48-1.7,5.73,5.15,3.68,8.29,2.36,10.3-4.69,17.76-6.31,1.71.74,0,7,.32,7.15,1.13.77,6.45-5.31,6.41-9,.24-1.88-1.65-6.67-.42-8.83,5.05-4.85,8.26,3.19,8.3,6.94,4.63,4,5.09-3.14,3.36-6.31.15-3.84-2.57-9.07.11-12.61,2.76-1.51,4.64-1.86,4.2,3.26-.17,4-1.65,6.4.84,8.83,5.75-2.16,6.7-12.72,8.09-18.71.92-5.88-.1-4.74-2.52-7.35-1.07-2.28,1.51-6.67,3.47-6.52,4.48.68,2,9.83,2.52,11.67,8.14,3.18,6.16-13.89,6.1-16.4-.77-2.36-2-3.08-1.58-4,7.62-4.65,2.66,4.85,5.46,8.72,4.72,4.11,6.52-2.66,4.42-7.67-.49-2-4.76-16.51,3.68-9,.84.52-1.89,8.68-.21,9.56,6,.1,5.48-12.66,5.25-17.55-1.9-4.12,1.39-5.31,5.05-4,4,1.9,4.07,8.95,5.15,8.83,2.06-8,5.73,2.15,16.39,8.3,3.79,3.35,14.34,4.8,14.82-1.79-6.25,3.73-15.94-2.23-20-9.14-3.18-4.89-3.36-5.12-7-7.88C779,1256.47,778.12,1253.87,774.22,1253.88Zm4-30.25c6.44,1.92,17.42,5.19,25.07,14.72,11.38,14.18,12.84,39.06,13.57,51.52.29,5.08.46,12.46,4.34,14.09,3.1,1.31,8.53-1.09,10.84-4.89a9.09,9.09,0,0,0,1.17-3.15c4.88-28.7-8.05-62.39-8.05-62.39-7.26-18.9-11.06-28.45-19.47-33.11-10.16-5.63-21.57-3.88-29.39-2.68a70.23,70.23,0,0,0-30.43,12.59,35.85,35.85,0,0,0-17.14-23.56A62.94,62.94,0,0,0,742,1173.13c2.78-3.89,7.46-10.61,9.1-20.29.36-2.17,2.55-15.06-2.69-17.84-1.77-.94-3.74-.4-6.64.58-11.06,3.76-18.14,6.17-26.36,13.3a66.24,66.24,0,0,0-11,12.35,68,68,0,0,0-7.47,14.12c-22.28,4.91-37.58,11.77-40.42,13.68a85.65,85.65,0,0,0-7.52,5.77l-.12.1a137.05,137.05,0,0,0-17.25-20.4c-8.57-8.3-12.79-10.14-14.69-10.87a34.86,34.86,0,0,0-19.43-1.42c-10.31,2.15-15.08,8.64-29.52,23.62-19.8,20.56-30.62,27-30.3,38.18,0,1.15.19,6.55,2.87,7.63,2.47,1,5.64-2.29,10.58-6.62,0,0,6-5.24,18.65-14.2a112.32,112.32,0,0,1,18.77-11.06,56.11,56.11,0,0,1,15.28-4.69c14-1.89,25.94,4.61,32,8.6a93.39,93.39,0,0,0-18.21,18,91.47,91.47,0,0,0-7.48,11.42,122.6,122.6,0,0,0-9.45,22.43c-2.36,7.1-4.09,12.29-5.17,19.69a89.35,89.35,0,0,0-1,13.23,29.69,29.69,0,0,0-14.74.93c-.34.11-.72.23-1.16.4-8.2,3.12-13.07,13.15-14.37,21.66-.16,1.08-1.57,10.75,1.61,12.08,2.27,1,7.27-2.19,8-2.65.15-.1.58-.37,1-.69,4.64-3.39,4.56-8.39,7.85-11.41s9.09-3.45,11.2-1.29.12,6.1-.39,9.45c-1.93,12.59,3,30.19,12.59,34.24,10.41,4.38,24.24-4.08,30.7-10.23a36.59,36.59,0,0,0,4.23-4.8c2.56-1,3.72-.67,4.3-.23,2.68,2-2.38,9.16.53,17,.5,1.36,1.9,5.11,4.89,5.95,4.49,1.27,9.83-5,12.1-8.78a24.62,24.62,0,0,0,3.36-11.62,31.69,31.69,0,0,0-3.3-16.09c5-3.73,12.24-9.19,20.79-16,11.21-8.89,17-13.41,23.55-19.42,7-6.39,14.91-13.78,22.14-23.87a113,113,0,0,0,18.1-40.63A61.87,61.87,0,0,1,778.23,1223.63Zm43.47-95.16,2.94-4.23a8.37,8.37,0,0,0,4-1.63c.86-.67,2.18-1.69,2.06-2.92s-1.73-2.07-2.81-2.59a9.11,9.11,0,0,0-4.22-.89,21.75,21.75,0,0,0-3.19-3.74,27.91,27.91,0,0,0-8.37-5.17,26.33,26.33,0,0,0-8-1.29c-2.08-.14-3.8-.13-5-.1a7,7,0,0,0-1.35-4c-.46-.61-1.8-2.38-3.46-2.19-1.89.22-2.82,2.84-2.94,3.2-.81,2.36.35,3.6.67,7.07.29,3.08-.41,3.85-.67,7.41a30.31,30.31,0,0,0,1.19,10.64c-2.06,0-5,0-8.63.06-9.54.23-11.61.79-13.54,1.73a14.88,14.88,0,0,0-6.57,6.64c-.94,2.07-.55,2.85-.37,3.11.53.8,1.77.77,4.23.73a57.49,57.49,0,0,0,8.23-.88c.91-.12.46,0,12,.08,2.84,0,4.27.4,5.29,1.43a5.7,5.7,0,0,1,1.27,4.33l-3,1.82c-10.44,6.41-12.1,7.84-13.49,9.91-.26.4-3.6,5.51-1.83,7.78,1.12,1.44,4,1.23,4.6,1.21,1.14,0,2.13-.29,4.74-1.33.89-.36,2.44-.95,5.18-2.26,2.39-1.15,4.23-2.14,4.88-2.48,4.65-2.43,7-3.58,8.61-3.43,3.5.34,5.64,3.45,6,4,.53.77,2,2.9,1.39,5a4.22,4.22,0,0,1-.66,1.32c-6,8.27-6.92,9-7.11,10.56-.56,4.61,6.4,6.7,5.45,11.62-.29,1.47-1.25,3-.6,5,.08.26.62,2,1.72,2.13s2.21-1,2.46-1.33c.78-1,.46-1.56,1-3,.95-2.53,2.63-2.52,2.85-4.44.17-1.41-.68-1.8-.33-2.93.49-1.57,2.74-2.76,3.72-2.19s.1,3.15-.33,7.84c-.49,5.27-.83,8.93.79,12.41s3.2,2.81,6.84,8.63c1.46,2.34,2.2,3.55,2.59,5.31.54,2.45,0,3.92,1.13,4.78a3.19,3.19,0,0,0,3.85-.26c.68-.65.57-1.34.8-3.59.47-4.73,1.36-5.88.39-7.37-.64-1-1.21-.73-1.92-1.72-1.66-2.31-.22-5.95,0-6.51,1.66-4.2,7.35-6.85,7.68-7,1.55-.71,4.93-2.26,7.57-1.83,8.87,1.45,16.67,26.39,11.35,48-2.24,9.14-6.91,18-8.09,20.23-6.31,11.85-10.75,14.6-11.87,23.22-.22,1.63-1.28,10.94,4.69,18,3.3,3.91,10.11,8.76,14.49,6.27,2.72-1.55,4.31-5.83,3.26-9.14-1.67-5.23-8.87-4.61-10.34-9.28-1-3.27,1.63-6.31,5.77-12.38,0,0,4.75-7,11-18.53,5-9.24,4.86-17.8,4.95-29.76.1-11.59.19-22.84-6.65-34.32-1.47-2.47-6.92-5.43-10.7-12.39a50.17,50.17,0,0,1-2.36-5.25c-2.48-5.78-4.82-9.58-9.49-17.18a214.13,214.13,0,0,0-14.37-20.91C827.45,1135,824.19,1131.23,821.7,1128.47Zm-251.44,119a15.87,15.87,0,0,1-6.1,3.26,5.83,5.83,0,0,1-3.71.22c-2.41-.86-3.18-3.77-3.3-4.25a9.47,9.47,0,0,1-3.47,7,8.35,8.35,0,0,1-6.12,1.75,8.43,8.43,0,0,1-5.79-3.84,12.13,12.13,0,0,1-.21,6.89,9.11,9.11,0,0,1-3.06,4.81,8.4,8.4,0,0,1-4.85,1.64,7.21,7.21,0,0,1,3,3.06c.84,1.72.65,3.33.32,5.89a28.61,28.61,0,0,1-1.64,6.46,8.8,8.8,0,0,1,5.88-1.67,7.33,7.33,0,0,1,4.48,1.89,7.74,7.74,0,0,1,2,6.4,7.88,7.88,0,0,1,2.73-2.81,6,6,0,0,1,4.51-1,5.41,5.41,0,0,1,2.88,1.89,5.35,5.35,0,0,1,1.42-4.47,5,5,0,0,1,3.3-1.34,5.53,5.53,0,0,1,3.77,1.3,9.5,9.5,0,0,1,0-5.69,5.18,5.18,0,0,1,1.5-2.53c1.9-1.62,4.64-.88,5-.77-.7-.63-3.11-2.93-2.61-5.26.19-.89.93-1.74,2.43-3.37,1.09-1.21,2.07-2.14,2.76-2.77-.6,0-3.37.07-4.93-1.85-.87-1.08-1-2.29-1.09-3.94A18.09,18.09,0,0,1,570.26,1247.52ZM777.89,956.57c-.88-1.84-4.77-9.46-12.76-11.55-9-2.35-17,4.11-19.28,5.74a36,36,0,0,0-6.11,5.47c-1.71,1.86-9.59,9.46-25.41,24.62-9,8.66-13.56,13-16.36,15.5a321.51,321.51,0,0,1-27.59,22.14,36.3,36.3,0,0,0,6.68,0c9.11-.83,14.81-5,15.63-3.65.62,1-1.81,3-4.16,7.3a31.79,31.79,0,0,0-3.6,11.41,63,63,0,0,1,16.1-18.18c5.94-4.49,14.8-9.45,16.16-7.82.8,1-1.14,3.75-3.65,7.29-8.85,12.51-15.58,15-19.28,24a28.54,28.54,0,0,0-2.09,9.9,45.37,45.37,0,0,0-11.37,1.44c-13,3.4-21,11.87-25.63,16.8-8.67,9.34-16.25,22.35-20.84,30.22-1.75,3-3.37,5.93-6.78,8.86-6.16,5.31-13.68,6.34-20.32,7.3a69.54,69.54,0,0,1-15.11.5,23.48,23.48,0,0,0,8.86,7.32c10.5,4.89,20.91-.27,22.4-1.05a67.87,67.87,0,0,0,.48,30.18,27.17,27.17,0,0,1,4.74-12.46c4.12-5.71,8.67-6.72,14.07-11.46,3.4-3,7.76-8,10.94-16.68a88.84,88.84,0,0,0-1,42.73,136.88,136.88,0,0,1,6.77-30.22c1.7-4.89,4.63-13.35,6.26-13,2.32.46.89,18.49-.53,29.18-.69,5.25-1.49,9.57-2.08,12.51,9.6-25.88,13.17-31.13,14.59-30.75,2.52.69,2.19,16.84-2.6,31.79-3.76,11.72-8.88,18.42-7.76,19.2,1.37,1,10.35-8.17,17-18.66a100.13,100.13,0,0,0,9.45-19.86,116.1,116.1,0,0,0,4.12-14.3,31.29,31.29,0,0,1-.6,21.52,29.45,29.45,0,0,1-6.67,9.74c10.85-5.5,16-12.31,18.53-16.56,3.82-6.44,5.22-14.16,7.81-29.63.26-1.57,1-6.47,2.4-16.22,2.78-19,3-20.89,4.21-24.63,2.67-8.26,5.68-18.16,11.81-19.62,2.3-.55,5.44-.19,7,1.88,1.43,1.86,1.53,5,.08,6.45-2,2-5.83-.18-7,1.6-.89,1.37.69,3.74.9,4a6.2,6.2,0,0,0,5.59,2.82c2.69-.33,4.23-2.9,4.94-4.11,3.93-6.73-1.68-11.62,1.07-18.7,1.83-4.73,6.23-7.44,14-12.21a65.4,65.4,0,0,1,7.61-4q-2,3.26-3.83,6.81a134.28,134.28,0,0,0-13.2,38.73c9.07-11.65,12.21-13.15,13.43-12.5s1.14,3.62-1.07,14c-1.94,9-3.38,16.19-4.21,20.33a248.45,248.45,0,0,0,17.12-21.43c11.27-15.82,23.73-37.26,29.58-49.86a101.2,101.2,0,0,1,6-10.93A85.82,85.82,0,0,1,821.52,995c6.12-7,13.38-14.41,11.09-19.69-1.59-3.67-7.49-6.13-11.75-5-4,1.09-6.22,5-7,4.46-.57-.41.24-3.22,2.05-5.57,2.52-3.27,5.43-3.66,10.46-6.47a46.52,46.52,0,0,0,7.33-5.07,18.69,18.69,0,0,0-17.52-5.22,24.14,24.14,0,0,0-8.31-4.79c-9.82-3.23-18.69,1.19-21.3,2.49A32.74,32.74,0,0,0,777.89,956.57ZM566.41,1140.08c-.8-2.53,2.35-5.58,1.59-6.32s-3.12,2-5.12,1.42c-2.59-.72-3.87-6.68-3.39-11.73.94-9.83,8.85-19.43,17.88-24.36,4.22-2.29,8.75-3.61,8.53-5.11-.19-1.26-3.64-2-6-2-13.79-.25-30.73,21.49-27.84,33.24.45,1.85,1.18,4.71-.29,7.39-2,3.66-7,4.74-10.82,5.09a1.78,1.78,0,0,0-2.15-1.55,1.75,1.75,0,0,0-1,2.14l-6.49,2.27a1.7,1.7,0,0,0-2-.77,1.72,1.72,0,0,0-.77,2.4l-7.15,5.08a2,2,0,0,0-2.77-.43,1.91,1.91,0,0,0,.51,2.43l-5.85,6.86c-1.13-.89-2.46-.77-2.87-.23s-.14,1.95,1.16,2.76a34,34,0,0,0-3.72,7.27c-1.08,3-4.3,11.73-.53,20.72,1.21,2.9,3.22,7.5,7.77,9.61,7,3.25,15.8-2,21.59-5.4a46.68,46.68,0,0,0,4.84-3.28c1.28,1.44,2.84,1.74,3.36,1.26s.34-1.85-.65-3.17l7.11-7.87c1.64,1,3.15,1.3,3.53.83s-.26-2-1.82-3.43q2.26-3.74,4.51-7.47c1.66.65,3,.67,3.24.23s-.57-1.47-2-2.39l3.47-6.31c1.47.79,2.92.36,3.22-.31s-.31-2-1.77-2.58h0c1.3-2.73,2.3-5.13,3-7a78.7,78.7,0,0,0,18.35.58c8.92-.77,19.27-1.66,24.11-8.64a15.56,15.56,0,0,0,2.81-8.84,10.72,10.72,0,0,0-1.6-5.73c-.64-1-2-2.7-2.72-2.41s.25,3.35-.1,6.13c-.63,5-6,8.23-9.34,10.25-9.8,5.84-19.52,4-25.42,2.81C569.5,1142.87,567,1141.92,566.41,1140.08Zm29.19-70.55c1.18,1,1.08,3,1,3.87-.15,3.18-2,4.35-1.34,5.52s3.36,1.14,5.07.6a7.49,7.49,0,0,0,4-3.28c1.81-3.22-.09-6,1.65-7.61.84-.81,1.65-.49,4.32-.74a33.7,33.7,0,0,0,9.84-2.69,38.79,38.79,0,0,0,6.86-3.58c6.06-3.84,8.18-7.16,9.55-6.41,1,.53,1,2.77.45,4.32-1.09,3.18-4.58,3.88-4.33,5.52.15,1,1.57,1.6,2.39,1.79,2.63.6,5.71-1.61,7.15-4.17s.19-3.89,1.5-7.91a20.07,20.07,0,0,1,3.58-6.26c1.73-2.32,2.76-3,7.3-7.31a79.31,79.31,0,0,0,6-6c2.41-3.2,3.29-6.08,4.72-10.75,2-6.5,3-9.76,1.64-12.53a9.32,9.32,0,0,0-7.9-5.22c-1.32,0-2.64.42-10.29,7.16-4,3.53-6,5.3-7.31,6.71-4.36,4.76-6.15,8.38-7.61,7.9-1.21-.39-.33-3-2.23-4.77-2.59-2.38-7.52-.61-8.36-.3-1.07.41-4.08,1.56-5.21,4.48-.08.19-1.11,2.93,0,3.88,1.49,1.28,5.24-2.11,6.71-.9,1,.81.45,3.25-.3,4.92-1.17,2.61-3.1,3.89-10.14,7.61-14.15,7.47-8.12,3.26-16.71,7.6a7.7,7.7,0,0,1-4.47,1.2c-3-.32-3.51-2.86-7.31-4.63a11.49,11.49,0,0,0-8.2-.74c-2.76.94-5.34,3.38-4.92,4.77.28.94,1.77.82,5.37,2.24,2.4,1,4.68,1.85,4.62,2.53-.13,1.47-10.76-.64-21.33,4.33-3.69,1.73-10.63,5.86-10,9.09.79,4,12.8,5.57,21,4.63,4.42-.51,6.84-.78,10-2.09a50.35,50.35,0,0,1,8.58-3C593.16,1068.88,594.62,1068.7,595.6,1069.53Zm64.78-84.3c1,2.92,2.25,6.71,5.28,7.47,3.74.94,7.36-3.41,7.81-3.94.58-.71,2.19-2.64,2.26-4.87,0-.48,0-2.44,0-2.43a10.65,10.65,0,0,1,2.1.25c1.68.62,1.53,5.43,1.59,13,0,3.75.08,4.54.62,4.78,1.51.7,5.92-3.36,7.26-8.33,1.54-5.74-1.46-11.56-1.89-12.37-1.55-2.91-3.32-4.3-3.89-7.93-.17-1-.6-3.73.8-4.7a3,3,0,0,1,2.83,0c2.42,1.17,2.87,5.14,2.91,5.57,0,.1.23,1.18.67,3.35.11.5.22,1,.51,1.09s1-.89,1-1c1.25-2.31-.62-4.95.14-5.51s3.63,1.65,5.51,3.23c4.33,3.63,4.19,4.66,5.91,5.24,3.7,1.25,9-1.94,11.43-6,2.07-3.47,1.74-7,1.48-9.81-.08-.77-1.45-13.65-10.76-19.49a55.27,55.27,0,0,0-11.15-5.51c-1.75-.58-2.81-.6-3.23-1.48-1.39-2.91,7.56-7.13,7.12-13-.27-3.69-4.16-7.33-7.38-7.29-.83,0-2.06.26-9.82,7.71-1.24,1.19-2.27,2.2-3,2.94a16.86,16.86,0,0,0,1.42-8.64c-.22-2.13-.55-5.28-2.93-7.47-3.46-3.16-8.76-2-11.08-1.51-2.56.57-6.76,1.49-9,5.29-2.09,3.57-1.65,8.36.9,12.36-1.14-.46-2.48-1-3.92-1.42-1.65-.52-2.73-.77-3.19-.87l-.55-.12c-2.15-.43-5.95-1.2-7.42.45-1,1.14-.94,3.43.06,4.94,1.31,2,3.49,1.39,8.12,2.77,2.11.63,7.88,2.43,10.2,6.87a4.12,4.12,0,0,1,.61,3c-.39,1.47-1.85,1.8-3.89,3.45a19.68,19.68,0,0,0-4.57,4.54c-.65,1-2.4,3.81-1.81,7a3.25,3.25,0,0,0,1.27,2.33c1.22.69,2.36-.55,3.36,0,1.44.79,1.54,4.73-.26,7.32-.93,1.32-1.83,1.55-3.19,2.52-4.1,2.9-5.49,7.62-6.13,9.81-.57,2-2.4,8.21.42,10.4a4.25,4.25,0,0,0,3.95.59c3.56-1.37,4.28-8.27,7-15.14a9.88,9.88,0,0,1,1.3-2.31c1-1.38,2.88-3.08,3.52-2.68s-1.21,3.42-1.34,8.3A21.63,21.63,0,0,0,660.38,985.23ZM644.74,871.74a71.23,71.23,0,0,0-4.19,8.57,19.25,19.25,0,0,0-1.91,6.48c-.08.8-.47,5.16,1.07,5.76.55.21,1.46,0,4.71-3.44a77,77,0,0,0,6.8-8.34c2.22-3.2,3.8-5.85,6.6-7,1.56-.67,2.26-.36,2.53-.18.84.53.89,1.82.91,2.53.06,2.46-1.19,2.92-1.75,5.52s.53,2.3.19,6.29a5.53,5.53,0,0,0,.36,3.19c.15.31.74,1.5,1.64,1.55s1.86-1.26,2.1-1.64c.9-1.46.56-2.43,1.18-5.47.56-2.72,1-2.89,1.19-2.92.54-.11,1,.69,2.11,1.88,1.51,1.55,2,1.76,3.09,2.86,3.61,3.53,2.88,5.2,5.47,6.84.17.11,3.68,2.26,6.47.82a6.07,6.07,0,0,0,2.92-3.65c.46-1.87,1-3.24,1.1-3.68a11.49,11.49,0,0,0-1.47-6.89c8.1,5.32,10.46,5.74,11.07,5.08.83-.9-.79-4.51-3.08-6.7-3.07-2.94-6.28-4.18-6.05-4.84s3.72.72,5.9-.93c2.89-2.17,1.33-8.94-.18-12.67-.78-1.92-2.13-3.74-4.83-7.38-5.4-7.29-7.79-8.39-9.12-8.85a12.26,12.26,0,0,0-5.29-.54,21,21,0,0,0-5.29-9.12c-2.36-2.35-3.78-2.52-4.19-2.55-3-.24-5.32,2.65-6.2,3.73-2.17,2.69-2.72,5.55-3.37,8.94-.39,2-.22,2.13-1,8.11-.36,2.71-.56,4.06-.73,4.83C652.3,863.25,649.41,864,644.74,871.74Zm20.38-132.85c-1-.63-3.57-2.33-5.48-1.48-1.56.69-2.26,2.9-2.07,4.59a6.47,6.47,0,0,0,2.07,3.7c3.36,3.67.16,9.63.3,18.22,0,2.14.19,12.22,5.33,21,1.16,2,3.12,4.84,2.66,8.44a18.84,18.84,0,0,1-2.51,6.37,54.91,54.91,0,0,1-3.11,5A109.35,109.35,0,0,1,655.2,814c-4.75,5.95-9.3,13.66-8.3,14.51.54.46,2.67-1.11,5.38-3.12a37.56,37.56,0,0,0,4.84-4.14c3.22-3.25,6.36-7.3,12.59-15.7.67-.9,1.75-2.36,3-2.22.68.08,1.78.7,3.41,5.93a71.22,71.22,0,0,1,2.07,9.62c1.23,6.74,1.79,8.5,2.82,10.37s3.18,5.14,4.44,4.74c.35-.11,1.19-.69.89-7a75.54,75.54,0,0,0-2.52-15.7c-2.69-10.42-3.23-9.78-3.7-13.77-.31-2.58-.14-3.37.59-14.07,1-14.24,0-17.55-.44-19.11-1.16-4.21-1.93-7-4.25-10s-4.87-4.39-4.79-7c0-.82.34-1,2.37-5s2.69-5.06,2.22-5.92c-.65-1.2-3.08-1.68-4.74-.89-2.38,1.14-2.36,4.51-4,4.59C666.45,740.1,666.31,739.66,665.12,738.89ZM511.05,1019.54c19.56-.92,36.7,15,42.46,20.43,8.7,8.26,12.63,14.74,14.15,13.87,2-1.12-2.38-13.14-6.8-22.47-11.6-24.5-19.9-22.44-42.9-52.77-2.49-3.27-8-10.63-12.76-9.53s-6.29,10.5-9.22,10.12c-2.17-.28-1.53-5.48-5.81-9.69-3.22-3.16-5.45-2-9.55-4.58-8.05-5-9.53-15.57-10.52-15.23-.62.21.74,4,.47,10.13a39.11,39.11,0,0,1-1,6.93c-1.8,8.3-4.44,9.39-4.08,14s3.24,7,2.29,8c-1.35,1.43-6.43-4.24-10.59-3.64-12.42,1.79-13.77,59.12-14,70-.51,21.35.21,49.14,2.68,49.26,1.94.09,4.56-16.89,5.64-24,3.68-23.87,1.89-33.35,9.75-41.25,1.23-1.24,7.1-7.13,12.48-5.68,8.25,2.23,9.91,20.28,11.41,36.42,1,10.74.95,22.46.82,45.47-.07,14.9-.31,26.47,1.38,26.67.87.11,1.88-2.78,2.68-5,2.32-6.38,2.5-11.38,2.84-16.69,1-15.29,2.25-18.73,3.14-20.71,1.37-3.06,3.23-7.08,7.16-8.35.69-.22,3.4-1,9.7,1.74a42.14,42.14,0,0,1,12.05,8c12.61,11.83,18.18,19,19,18.43,1-.65-6.42-12.49-15.81-30-6.7-12.46-7.31-14.31-10.77-21.51-2.82-5.87-4.8-9.65-5.61-11.28-4.05-8.06-14.34-28.54-8.1-35.11C504.1,1021.17,505.58,1019.8,511.05,1019.54Zm59-40.59a52.65,52.65,0,0,1-12-8.55c-3-2.67-7.24-7-15.26-20.51-5.59-9.41-6.05-11.55-10-18.41-7.76-13.6-12.8-22.42-21-27.78-17.19-11.2-40.91-2.45-44.29-1.26-24.77,8.69-35.42,31-42.4,27.2-2.9-1.6-3.74-6.95-2.53-10.75,3-9.38,17.72-7.21,35.43-17.09,5-2.8,26.42-14.73,26.58-31.63.13-14-14.56-24-16.45-25.31a41.52,41.52,0,0,0-22.15-7,57.76,57.76,0,0,0-20.16,3.38c-2.19.76-7.21,2.64-14.64,4.84-6.78,2-8.62,2.24-9.49,1.27-1.72-1.94.8-7.69,4.43-11.39,4.3-4.38,9.35-5,14.55-6.33,2.09-.51,17.86-4.53,27.21-12.65,10.71-9.31,12.28-23.34,12.66-26.58.57-5,2.35-20.41-7.6-30.37-11.46-11.48-29.82-8.55-31.63-8.23-3.75.67-11.07,3.07-25.72,7.86-4.62,1.51-9.2,3.06-13.36.83a10.4,10.4,0,0,1-5.57-8.9c.06-4.93,4.24-7.86,5-8.37,1.5-1,2-.8,6.69-2.21,5.26-1.58,7.89-2.37,9.46-3.61,2.69-2.12,2.23-3.7,5.78-9,1.29-1.92,1.7-2.23,5.69-7,9.69-11.53,10.16-13.15,10.24-14.65a12,12,0,0,0-5.17-10c-4.79-3.17-10.77-.88-22.78,3.16-6.35,2.14-10.41,4.33-16.45,7.59-9.9,5.35-11.37,7.63-12,8.86-2.43,4.58-.78,6.5-3.16,12-2.53,5.86-5.38,5.29-10.26,11.79-1.79,2.38-7.82,10.41-7.46,21.12a28,28,0,0,0,3.17,12c5.18,9.63,16.09,14.84,25.31,15.82,3.68.39,4.69,0,10.36-.68,4-.47,3.75-.14,14.31-1.22,5.56-.57,8.91-1.11,13.85-.27,3.28.56,4.51,1.26,4.75,2.19.46,1.83-3.11,4.12-3.62,4.45-5,3.19-10.47,2.59-13.36,2.51-7.39-.22-12.82,2.46-21.86,6.94-8.63,4.26-21.88,14.68-25.31,31.63-2.61,12.87.2,30.37,12,39.23,6.34,4.76,13.32,5.24,27.29,6.19,12.9.89,22.94,1.81,34.72-2.39,9.37-3.35,16.18-8.56,19.61-5.7a5.25,5.25,0,0,1,1.27,5.7c-1.64,3.88-8.79,3.75-14.56,4.43-16.56,2-34.37,12.43-40.84,26.26a25,25,0,0,0-2.18,10.44c-.44,13.57,8.22,26.91,20.25,33.53a40.07,40.07,0,0,0,35.43,1.27c4-1.91,9.59-6.68,20.71-16.22,9.22-7.92,9.81-9.21,13.68-11.12,7.76-3.85,18.07-5,26.52-2.14,10.47,3.49,10.64,10.53,27,30.79,21.5,26.72,33.44,29.67,39.77,29.94,3.06.13,8.89-.18,9-1.35S575.36,981.63,570.07,979ZM391.82,540.59c-4.82-7.76-18.91-11.58-19.59-11.76-5-1.3-13-3.39-16.64.49-4.42,4.72-1.64,17.4,5.38,23.51,4.09,3.55,9.25,4.54,9.3,7.83a5.36,5.36,0,0,1-2.93,4.41c-2.33,1.14-4-.62-5.88.48-2.13,1.27-2.9,5.33-1.47,6.86,1,1,3.08.79,7.3.29.38,0,1.06-.13,2-.29,5.4-.92,7.29-2.16,7.83-1.47s-.34,2.51-1.71,3.29c-1.52.87-2.7-.19-3.91.56-1.58,1-2.1,4.33-.75,5.94s4.55,1,7.31.48c3.37-.68,3.71-1.63,4.93-1.46,3.12.45,4,7,6.94,20.18a129.25,129.25,0,0,1,3.21,22.34c.13,2.63.22,6.28-2.09,8.23-1.71,1.45-4.24,1.56-7.12,1.68-4.46.19-6.55-.79-7.27.28s.43,3.23,1.68,4.61c3.31,3.65,8.6,2.77,9.08,5.16,0,.2,0,.13-.28,1.54-.75,3.91-.36,4.46-1,5.17-1.32,1.48-4.57.73-5.31.55-2.33-.54-2.95-1.64-4.05-1.25-1.27.45-2,2.5-1.81,4.19.31,2.23,2.36,3.65,5.44,5.72,3.29,2.21,3.58,1.59,4.47,2.65,2.11,2.52-.12,5.28-.84,14.53-.42,5.49.16,7.19-1.39,10.33-1.33,2.68-3,3.92-2.51,4.75,1,1.67,9-1.41,9.35-1.54a34.78,34.78,0,0,0,11.87-7.12c7-6.59,12.55-17.86,12.71-26.81a17.65,17.65,0,0,1,2.23-9.22,16.23,16.23,0,0,1,3.63-4.19c3.09-2.75,4.72-8.42,3.91-27.5-.66-15.53-1.51-23.43-5.17-31.42-3.12-6.81-8.34-13.34-10.75-14.24-.23-.09-1.54-.54-1.53-1.12,0-.43.73-.85,1.39-1,2-.37,3,2,4.61,1.68a3.12,3.12,0,0,0,2.09-3.21c0-.37-.26-1.32-4.6-3.77-3.44-1.94-3.73-1.59-5-2.79-1.52-1.42-1.5-2.25-3.21-3.36-1.44-.93-2.75-1.17-2.7-1.58s.77-.45,2-.65c4.31-.71,5.17-.61,6.56-1.26.92-.42,2.3-1.06,2.66-2.37.41-1.5-.74-3.1-1.68-3.91-1.48-1.28-3.28-1.34-5.86-1.4-4.37-.08-5.71,1-7.82,0A7,7,0,0,1,391.82,540.59Zm-139.12,9c-.85,1.1,1.82,6.52,5.59,16.71,7.48,20.25,8.15,29.17,15,35a17.25,17.25,0,0,0,5.17,3.05A57,57,0,0,0,277,616.09a60.22,60.22,0,0,0,2.36,18c2.49,9.4,6.13,15.36,9.45,20.81a54.24,54.24,0,0,0,7.3,10.09c2,2.07,6.05,6.32,11.82,8.51a53,53,0,0,1,7.52,3.16c4.58,2.41,4.73,3.42,4.72,3.77,0,2.37-6.84,1.39-9.45,7.57-1.71,4.06-.67,9-.43,10.09,1.55,7.3,7,12,8.59,10.4,1.36-1.37-1.38-6.43.22-12.29,1.89-7,8.48-9.91,9.24-8.51s-3.95,5.45-3.66,12c.23,5.1,3.38,9.75,4.94,9.14,1.22-.48,1.83-4.3,2.8-10.41.46-2.92.55-4.41,1.5-5.67a3.46,3.46,0,0,1,4.3-1.26c2.32,1.19,3.29,5.5,3.43,8.2.2,3.91-1.24,6.65-.21,8.19a1.9,1.9,0,0,0,2.15.63c1.82-.53,2.63-3.52,2.79-4.1,1.07-3.93-1.9-6.3-1.29-11.35.27-2.25.84-2,1.29-4.41,1.15-6.34-2-12.18-1.5-12.61.34-.3,2,2.59,4.08,6.94,2.47,5.23,3.15,7.64,4.29,10.08a24.72,24.72,0,0,0,9,10.41,181.45,181.45,0,0,0,2.15-41c-.77-12.41-2.46-39.59-15.68-58-2.43-3.38-8.54-11.9-18.26-15.13a24.37,24.37,0,0,0-7.3-1.26,87.66,87.66,0,0,0,3.44-11.35c1.06-4.61,1.23-8.67,2.36-17,.42-3.1,3.15-23.37.86-24.59-1.18-.62-2.54,4.43-6,9.78-5.83,9-12.93,11.58-23.41,15.44-4.81,1.78-10.94,4-19.16,3.67-4.65-.17-9.62-.36-15.42-3.67C257.7,555.67,253.72,548.25,252.7,549.56ZM775.75,748.94a31,31,0,0,1,17-3.27c7.66.66,12.65,3.7,12.8,3.34s-7.75-7.22-18.92-8.62c-5.35-.68-10.21-.55-17.13-2.92a21,21,0,0,1-4.3-2.09c-3.9-2.45-5.39-4.79-10-6.13a23.82,23.82,0,0,0-13.36.28c-9.82,3.11-15.12,12.19-22,23.93a110.51,110.51,0,0,0-5.57,10.86c-4.6,10.39-6.12,20.14-8.35,28.38-5.44,20.21-3.58,42.86.13,88.15,1,12.13,1.49,18.2,2.82,22.18s2.67,6.44,2,10.08c-1.38,7.71-10,11.3-9.27,12.5.59,1,7-.33,12.1-4.84,4.5-4,5.53-8.4,7.26-8.06,2.16.42.74,7.39,5.09,11,2.31,1.89,5.11,1.91,7.41,1.94,7.66.11,15.34,1.4,23,.81,19.5-1.52,32.66-1.62,32.66-2.83,0-.93-7.94.14-12.1-4.83-3.52-4.22-2.4-10.49-2-12.91,2.64-16.25,4.55-55.16-1.45-82.25-1.7-7.69-3.78-14.94-5.29-28.11-.5-4.42-.9-9.27-2.22-16.42a161.51,161.51,0,0,0-3.81-15.91A31.18,31.18,0,0,1,775.75,748.94ZM647.27,544.89c-6,.67-8.23-2.37-16.24-1.86-1.87.12-2.74.37-4.06-.15-4.3-1.68-5-8.24-6-8.07-.45.08-.88,1.43-.57,7.73-3.78-.57-7.84-1-8.08-.18-.28,1,5.25,2.57,10.75,6.25,8.53,5.7,6.47,9.84,16.37,18.54,5.87,5.16,8.81,7.74,12.56,9.33,2.37,1,5,1.76,6.83,4.32,2,2.86,1.8,6.24,1.71,7.63,0,0-.83,12.77-.8,41.08,0,1.8,1.78,10.65,5.35,28.34,6.36,31.58,9.54,41,8.19,46.85-.16.71-.85,3.4.51,4.83s4,1,5.92.76c4-.53,5.27-2,6.52-1.22,1.65,1.06.13,4.12,2,5.62,1.55,1.25,4.73.81,6.07-.76,1-1.18.36-2.25,1.67-4.1a6.31,6.31,0,0,1,2.43-2.12c2.12-1,3.27.25,5.46-.61,1.77-.69,1.53-1.69,2.89-2.13,2.38-.76,4.09,2,7.89,3.49,2.36.93,4.71.77,9.41.46A48.22,48.22,0,0,0,735,706.8c3.1-1,5-1.59,7.13-3.19a19,19,0,0,0,4.25-4.55c3-4.29,2.47-6.37,4.25-8.5,2.93-3.5,8.33-2.57,12.29-2.88,12.21-1,23.75-14.95,27.31-27.77,4.35-15.65-3.31-29.16-4.55-31.26-3.87-6.59-12.39-13.2-29.44-26.4,0,0-11.69-9.07-15.47-18.52-2.77-6.91-1.37-9.56-1.37-9.56-.23-3.87,0-6.73-.91-7s-1.87,1.54-2.46,2.55c-13.65,23.18-3.34,42-3.31,42.07h0c5.89,11.77,10.68,12.25,19.43,18.2,9.21,6.28,18.47,12.59,18.4,20.28,0,5.35-4.23,9.89-11.27,17.36a73,73,0,0,1-7.59,7,34,34,0,0,0-.45-5.47c-3-17.93-18.91-22.35-27.62-39.75-5-9.88.11-8.6-5.61-23.83a101.79,101.79,0,0,0-23.07-35.5c-2.62-2.63-4.94-4.65-6.56-6a17.17,17.17,0,0,0,2.16-4.78c.87-3.12.65-5.82.25-10.31-.38-4.3-.71-3.86-.59-5.45.35-4.37,2.61-4.26,3.68-9.12.75-3.4.28-5.43,1.89-9.08a9.28,9.28,0,0,1,1-1.7c2.6-3.56,7-4.26,6.83-4.7-.08-.24-1.48-.16-8.19,1.67.38-5,.09-6.29-.31-6.37-.71-.15-1.14,3.66-4.25,6.82-2.63,2.68-4.47,2.41-8.19,4.71-5.26,3.25-4.11,5.53-8.65,8.8-4.84,3.49-6.75,1.33-15.78,5C650.53,542.7,651.53,544.41,647.27,544.89Zm82.21-22.46c-1.31,2.28-4.36,2.37-6.74,3-11,2.74-19.41,19.16-19.69,32.91a33.08,33.08,0,0,0,4.31,17.26c.82,1.4,6.08,10.39,11.06,9.44,2-.38,3.39-2.77,6.21-7.55s4.71-8,5.93-12.68a54.93,54.93,0,0,1,3-8.36c.53-1.29.87-2.33,1.89-3,1.94-1.22,4.64-.12,6.2.54a19,19,0,0,1,7.55,5.93c7.13,9.57,5.41,19.45,8.37,20,2.65.46,6.55-7.07,8.09-13.22a32.46,32.46,0,0,0-1.89-20.77c-2.11-4.63-4.62-10.16-10-12.41-2-.84-4.72-1.37-5.93-3.78a5,5,0,0,1,0-4.85c1.5-2.21,4.62-.76,10-1.89a25.48,25.48,0,0,0,12.67-7.28c2.88-3.22,3.08-5.55,4-5.4,2.1.32,2.9,11.49,1.08,21.58a57.83,57.83,0,0,1-4.32,13.76,15.54,15.54,0,0,0,7.83-1.35c1.14-.54,4.11-2.13,7-6.75,7.72-12.3,4.69-29.8-.54-38.57-.88-1.47-1.82-2.7-3.24-3-3.68-.68-5.62,6.14-12.94,10.52-4.86,2.91-11.93,4.65-14.57,1.89-1.2-1.25-1.77-3.3-1.08-4.58,1.4-2.61,8.19-2.75,11.06.27,1.49,1.56,1.11,3.12,2.45,3.55,2,.65,4.92-2.28,6.29-4.3a8,8,0,0,0,1.23-2.37c1-3.56-1-8.22-3.77-9-1.82-.53-2.91.92-6.47,2.7-6.67,3.33-12.87,3.26-12.95,3s7.36-.41,9.17-4.58a7,7,0,0,0,0-4.59c-1.3-5.36-5.79-7-5.12-8.9.5-1.42,3.29-.8,8.36-2.7a34.28,34.28,0,0,0,5.13-2.43c-3.16-1.39-7.34-2.55-11.33-1.07-3.8,1.39-4.69,4.16-7.56,4-4.64-.18-7.66-7.67-7.82-8.09-2.22-5.68-.49-10.43-1.29-10.59s-4.58,5.48-3.3,11.13c1.2,5.28,5.72,6.6,5.13,10.25-.45,2.77-3.15,2.55-5.13,6.74-1.55,3.3-.2,4.11-1.65,8.21-1.28,3.58-2.51,3.54-4.82,8.25-1.37,2.79-2.36,4.82-2.7,7.55C727.94,516.8,731.14,519.54,729.48,522.43Zm-93.58-96.5c-8.61.58-23.09,4.81-26.47,15.61-4,12.87,10,27.88,23.18,33.42,16.82,7.05,32.91-1,35.61-2.44-.68,1-5.56,8.37-2.68,16.35.63,1.75,2.73,7.56,8.42,8.79a10.79,10.79,0,0,0,11.1-4.53c3.19-4.79,1-10.06.82-10.42a24.16,24.16,0,0,1,2.4,5.61,26.47,26.47,0,0,1,.77,9.27,32.43,32.43,0,0,1-1.68,8.69c-1.9,5.51-4,6.5-4.53,6.73a6.34,6.34,0,0,1-2.11.47,13.17,13.17,0,0,1-3-.62c-1.15-.3-1.43-.39-1.44-.38s3.13,2,5.6,1.56c5-.82,8.06-11.3,8-19.42a33.87,33.87,0,0,0-1-7.63,13.57,13.57,0,0,1-.44-4.05,12.55,12.55,0,0,1,.29-2.24c2.73,4.42,7.37,6.5,11,5.35a8.71,8.71,0,0,0,4.77-4.37,10.71,10.71,0,0,0,0-9.09l.86.12a16.78,16.78,0,0,1,6.26,2.56,33.41,33.41,0,0,1,7.9,6.17,21.58,21.58,0,0,1,4,5.49c.78,1.59,2.64,5.41,1.81,9.73-.53,2.79-2,4.76-1.81,4.87a7,7,0,0,0,2-2.92c1.56-3.75.31-7.48,0-8.66-3.1-11.9-19.42-18.12-19-18.8.26-.46,6.62,4.51,11.63,2.47,3.8-1.54,6-6.75,5.44-10.88-.75-6-7.32-11.26-16.08-11.38a49.47,49.47,0,0,0,7.18-17.56c3.09-16-1.13-38.63-13.11-41.8-7.31-1.94-15.94,3.77-20,9.15A35.68,35.68,0,0,0,675,423.91c.06.77.11,5.62-.5,5.69s-.48-3.25-2.65-5a7.47,7.47,0,0,0-9.27.61c-2.68,2.81-2.29,8.75,2.32,12.2C663.12,435.56,652.1,424.83,635.9,425.93Zm100.4-50.74a9.26,9.26,0,0,0,4.31-1.82c4.65-4,1.4-14.35,1.13-15.19-2.67-8.23-8.91-13.56-8.85-13.61a33.32,33.32,0,0,0,5,5c3.34,2.58,7.69,4.5,8.4,3.63.3-.39-.14-1.23-2.73-5-3.72-5.42-5.67-7.94-5.67-7.94-6.38-8.28-8.45-10.71-10.2-10.21-.88.25-1.27,1.12-2.5,1.13a4.25,4.25,0,0,1-2.95-1.58c-2-2.53.77-5.37-.45-9.08-1-3.16-4.73-6.1-8.39-5.67-3.22.38-5,3.18-5.45,3.86-1.51,2.5-2.05,6.4-.23,8.39s4.77.47,7.49,3.18a7.62,7.62,0,0,1,1.81,2.94c.24.67,1.18,3.26,0,5a4.43,4.43,0,0,1-2.72,1.59c-4,1.21-6.69,5.05-8.84,8.17-3.41,4.94-4.71,11.24-3.63,11.79s3.28-4.29,10.43-10.2c3.35-2.78,7.58-5.64,7.94-5.22.21.24-.92,1.52-1.36,2-2.52,3-5.52,4.23-6.12,5-1.69,2.12-9.38,11.8-6.13,20,.08.2,1.62,4,3.4,3.86,1.52-.1,2.13-2.93,3.79-6.72,1.13-2.59,5.24-12.67,8-12.34,1.09.14,2.43,3.88,5.09,11.37,1.18,3.36,1.78,5.27,3.75,6.55A8.75,8.75,0,0,0,736.3,375.19Zm-60.8-17.47c-.87-1.23-1.16-1.59-1.16-1.89,0,0,0-.07,0-.15.21-.86,1.83-2.27,4-2.51s2.28.84,4,.6a5.51,5.51,0,0,0,4.18-3.5,6.39,6.39,0,0,0-.08-3.93,7.14,7.14,0,0,0-2-3.93c-1.29-1.13-3.49-1.22-7.87-1.4-1.24-.05-1.73,0-2.44-.07-.51,0-.86-.05-1-.06a13.18,13.18,0,0,0-5,1,22,22,0,0,0-5.62-7.55c-4.52-3.89-11.85-6.79-14.26-4.45-1.4,1.36-1.11,4.6.18,6.49s2.7,1.45,4.69,3.59,2.73,4.92,2.31,5.21-2-2.89-5.38-4-7.42.42-7.43,1.37c0,1.32,7.53,1.55,7.92,4.29a2.18,2.18,0,0,1-.66,1.77c-.92.89-2.29.37-4.55.28-1.46,0-5.43-.22-6.46,1.63-.57,1-.25,2.58.48,2.95s1.3-.59,2.67-.94c3.56-.9,7.4,3.53,7.6,3.76a11.17,11.17,0,0,1,1.78,2.89,54.73,54.73,0,0,0-4,5c-2.18,3-4,5.57-4.8,9.14-.42,1.76-1.33,5.56.29,6.71s4.56-.7,7.24-2.28a31.6,31.6,0,0,0,5.61-4.34,55.8,55.8,0,0,0,5.52-5.85,58.29,58.29,0,0,1,.23,11.34c-.47,6-1.69,9.34-1.14,9.52.76.26,4.56-5.34,5.22-12a45.72,45.72,0,0,0,0-8.43c-.21-1.7-1.13-3.3-.42-5.11.09-.22.81-2.07,2.29-2.44,2.51-.63,6.33,3.21,7.71,7.36,1.15,3.47.31,6.34,1.57,6.74.86.27,2-.79,2.55-1.53.22-.32.42-.7.76-3.92.26-2.45.26-3.33-.17-4.34a8,8,0,0,0-.63-1.09C677,359.88,675.51,357.72,675.5,357.72ZM691,315.45c.75.49.41,1.77.37,4.82,0,3.92.47,5,1.11,5.66.21.21.88.91,1.49.74,1.16-.31,1.19-3.57,1.2-5,0-3.89-.8-5.13-.92-8.54a26.11,26.11,0,0,1,.55-5.84c.86-5,3-11.68,4.36-11.51.55.07.8,1.15,1.12,2.42,1.84,7.39,4.59,15.86,5.28,15.77.24,0,.27-1,.28-1.3.36-11-3.52-21.8-3.52-21.8a46.23,46.23,0,0,1-1.86-5.29c-1.2-4.92-.38-7.19-1.85-8.16-1.64-1.09-4.78.29-6.68,2-2.84,2.6-2.4,5.53-3.71,8.9-2.52,6.49-8.21,6.27-13.92,12-7.4,7.4-10.11,20.08-6.58,23.1s15.92-2.55,18.18-5.48a7.15,7.15,0,0,1,3.06-2.31C689.61,315.39,690.44,315.08,691,315.45ZM665,285c3-1.15,4.16-.62,5.08-1.63,1.19-1.31.51-3.7.28-4.5a8,8,0,0,0-6-5.64,8.61,8.61,0,0,0-4.59.67c-2.38.92-2.9,2.13-4.21,2-1.56-.15-1.89-2-3.45-3.64-3.4-3.65-9.81-3.49-13.78-2.2-2.62.85-5.6,2.67-5.36,3.83s3.35.83,8.14,3.15c1.55.76,3.28,1.79,3.16,2.11-.25.62-6.88-3.59-14-1.53-1.92.56-6.4,1.85-7.37,5.17a4,4,0,0,0,.29,3.16c1.16,1.78,4,1.66,4.88,1.62a15.8,15.8,0,0,0,4.6-1.15c2.15-.74,2.85-1.24,3.63-.86a2.76,2.76,0,0,1,1.25,2.78c-.32,1.93-2.88,2.62-5.94,4.21-1.53.8-6.43,3.34-8.52,6.51-3.16,4.81-1.69,13.86,2.59,16,4.82,2.39,14.52-3.37,18.47-7.94a12.45,12.45,0,0,1,5.45-3.83,6.58,6.58,0,0,1,4.5-.19,4.61,4.61,0,0,1,2,7.94c-1.41,1.5-2.57,1.05-3.92,2.58-1,1.14-1.71,2.91-1.15,3.54.77.87,3.76-.72,4-.86a14.52,14.52,0,0,0,5.82-6.47c4.28-8.3,8.28-16.07,5.19-19.75-1.42-1.69-4-2.09-3.83-3.25C662.32,286,663.55,285.53,665,285Zm42.91-20.08c.48.48-.15,1.82-.58,2.78-1.67,3.71-2.5,5.57-2.59,7-.2,2.92,1.83,5.27,3.17,6.82,1.77,2.06,4.26,3.76,4.7,3.36.23-.2-.23-.85-1-2.49-2.22-5-1.65-7.45-1.44-8.17.3-1,.64-1.2.77-1.25.94-.36,2.29,1.27,4,3.08.57.59,2.08,2,5.09,4.7,6,5.46,8.22,5.81,9.32,5.86a4.84,4.84,0,0,0,3.17-.67c2.65-1.87,1.91-6.83,1.82-7.4-.53-3.27-2.35-5.55-1.82-5.95s2,1.56,3.17,1.06c.91-.41,1-2.14,1-2.4,0-2.84-2.51-5-4.23-6.44-2.22-1.87-4.44-3.75-7.59-3.94-2.29-.13-4.1.7-5.95-.57a5.7,5.7,0,0,1-1.44-1.54c-1.79-2.45-1-3.78-2.4-5.38-1.13-1.26-3.12-2.11-4.61-1.53a3.36,3.36,0,0,0-1.44,1.15c-1,1.35-.39,2.57-1.06,3-.89.53-2.18-1.46-4.13-1.16a3.65,3.65,0,0,0-2.11,1.35,5.23,5.23,0,0,0-.87,5.09,5.81,5.81,0,0,0,5.57,3.65C707.05,264.81,707.6,264.59,707.91,264.89ZM801.69,836.4c-3.09-3.5-6-6.78-6-11.29,0-3.63,1.89-5.82,1.21-10.49-.28-1.89-1.25-5.87-2.83-6-2.57-.28-7.35,9.55-8.07,18-1.31,15.45,11.23,21.61,31.1,53.38,10.11,16.15,14.75,27.15,16,30.1,4.83,11.7,8.2,19.86,9.67,31.59,1.54,12.39-.62,16.13,3.14,24.24,4.64,10,14.22,17.87,17.07,16.21,1.46-.84,1-4.2.51-7.34a43.42,43.42,0,0,0-6.31-16.73c-7.82-12.7-1.62-19.67-7.86-37.9a73.52,73.52,0,0,0-12.8-22.7c1.9-.2,4.17-.81,5.46-2.57,2.92-4-1.08-11.22-3.41-15.36-3.89-6.88-7.48-10.16-15.71-18.61C810.24,848,820.56,857.7,801.69,836.4Zm90,102.64c0,.58-2.64.05-5.47,1.54-5,2.62-8.66,10.32-6,13.87,2.08,2.81,8.11,2,11.88.39,5.28-2.33,7.57-7.06,8-6.74.61.45-4.89,9-6.06,10.71l-.06.08c-.09.14-.39.52-2.61,3.1-.58.68-1.29,1.54-2.2,2.69-1.71,2.18-2.53,3.3-2.38,3.5.71.91,17.08-6.11,17.8-16.4a11.23,11.23,0,0,0-.8-4.9l.82-.29a14.24,14.24,0,0,1,3.59,6.85c.83,4.32-1.29,7.17-.39,7.74,1.36.87,8.14-4.25,7.57-9-.45-3.76-5-6.15-4.49-6.85.33-.44,2,.81,5.69,1.57,2.53.53,3.41.29,3.85,1,1.11,1.76-3.07,5.42-2.43,6.2.88,1.07,10.81-3.45,10.39-7.49-.35-3.31-7.47-4.57-7.27-5.19s9.36-.56,13.45,5.18c2.7,3.79,1.88,7.47,2.94,7.57,1.77.16,6.18-9.78,2.53-15.13-2.18-3.18-6.89-4.3-6.87-4.35s3.85,2.75,6.87,1.55c1.61-.64,3.08-2.46,2.8-4.07-.19-1.06-1.16-2.09-1.82-2s-.44,1.66-1.54,2.66c-1.33,1.21-4.09,1.13-5.19-.14-.86-1-.15-2.06-1-2.8-1.3-1.15-4,.57-4.62-.28-.47-.69,1.21-2,.7-3.08-.41-.87-2-1.23-3.23-1-1,.2-1.46.75-1.68.56-.44-.38,1.48-2.58.84-3.51s-2.91.36-3.78-.7a2.16,2.16,0,0,1,.3-2.56,3,3,0,0,1,2.78-.52c1.81.36,2.41,1.66,2.95,1.4.69-.33.77-3-.7-4.48s-4.47-1.27-6.17,0c-2,1.53-1.72,4.15-2.94,4.34s-1.59-2.15-3.65-3.64c-3.66-2.66-10.39-1.05-13.73,2.52-1.29,1.38-2.17,3.16-1.82,3.5s2.15-1.37,5.47-2.38c1.93-.59,3.94-1.2,5.32-.14s1.9,3.82.84,5c-1.22,1.42-3.87.18-9.26-.72-4.85-.81-10.51-1.75-15.4.16s-8.51,5.9-8,6.86,5.16-.54,5.19-.42-4.67.46-7.85,3.64a10.62,10.62,0,0,0-1.68,2.25c-.52.9-2.35,4.07-1.12,6.44.43.83,1.3,1.7,2,1.54s.83-1.27,1.12-2.1c1-2.81,4.08-4.16,5.47-4.76C885.69,935.68,891.7,938.15,891.65,939Zm75.91,2.46M941.91,907A31.3,31.3,0,0,0,952.57,910a23.55,23.55,0,0,1,9.66,11.1,20.58,20.58,0,0,1,.71,2.19c-6,1.42-8.21,2-8.18,2.19s6.81-1.12,7-.39-4.91,2.49-4.82,2.73,2.51-.52,8.91-2.63c-3.82-8.29-3-12.61-1.46-15,3.32-5.11,11-3.06,20-7.74,6.93-3.59,11.22-9.35,13.87-14a48,48,0,0,1,37.84,17.68c3-13.22-.29-26.49-9.21-33.74-10.44-8.51-25.17-6-26.73-5.7-5.75,1-6.26,2.67-18,5.55-9.67,2.38-13.22,2.21-15.05,2-2.65-.24-9.28-.94-14.9-5.55-5.11-4.19-3.75-7-7.74-10.81-8.74-8.35-28.42-7.53-36.22,2a16.16,16.16,0,0,0-2.49,4.24c-15.6-.76-27.26,9.51-27.82,20-.51,9.75,8.71,16.8,9.71,17.53.11-1.38,1.29-13.31,12.12-20.3,10.45-6.74,21.37-3.38,22.79-2.92C923.16,881.43,926.64,899.37,941.91,907Zm68.89,19.19c4.92-1.09,8.86-.44,15.46.53,13.12,1.94,13.26,5.07,24.86,6.48,5.63.68,13.36,1.62,21.7-.92a52.22,52.22,0,0,1,7.16-2,55,55,0,0,1,13.29-.78,27.11,27.11,0,0,0,1.3-10.42,28.29,28.29,0,0,0-7-16.42c-4,2.38-10.21,5.91-18,9.92-5.32,2.75-8,4.14-9.92,4.94-17.14,7.15-30.47-9.2-47.07-4.8-16.42,4.35-23.92,26.25-22.76,27.2C990.66,940.63,997.38,929.1,1010.8,926.15Zm113.07-77.81c-9.53,11.17-13.41,12.84-18.75,22.77-6.66,12.4-8.26,24-7.5,24.29s3.61-15.62,16.34-30.42c7.67-8.92,10-7.11,18-16.62,3.21-3.82,4.67-6.31,16-27.19,8.88-16.38,12.24-22.7,12.5-22.56s-5.15,11.94-5.77,13.27c-8.21,17.51-12.31,26.27-16.37,32.09-11.77,16.87-19.15,13.82-27.39,28.8-7.21,13.12-7.49,26.29-6.55,26.56s2.31-15.25,14.46-30.12c7-8.62,11.24-9.39,20.91-21.31,3.64-4.5,6.33-8.67,11.71-17,0,0,10.8-15.2,15.42-30.68.24-.81.36-1.24.37-1.24s-3.21,22.13-19.65,43.22c-14,18-25.88,20.16-33.21,38.58-4.9,12.28-4.89,24.54-3.22,25,2.08.57,4.8-17.72,18.93-37.5,11.81-16.54,18.19-15.36,28.93-31.44a97.55,97.55,0,0,0,15-37.14s-1.3,22-16.13,43.38c-14.1,20.37-27.88,22.28-36.37,44.13-4,10.42-5.29,21.24-4.64,21.43s2.84-8,7.5-17.15c5.15-10.17,11-14.34,18.21-21.79,3.59-3.72,23.76-25,35.22-54.55A135.11,135.11,0,0,0,1183,799a29.31,29.31,0,0,0,10.72-11.07c8.33-15.69-.11-38.78-15.72-47.86-7.53-4.39-20.32-7.6-26.78-1.79-4.7,4.23-4.38,11.71-3.58,26.08.18,3.23.44,5.87.73,8.16.89,7,1.8,12.15,2.08,13.68l0,.3C1151.14,790.11,1152.63,814.63,1123.87,848.34Zm70.44-213.06c-2.75,10.66-4.73,13.93-7.49,22.46-7.18,22.18-8.63,46-5.62,46.81,2.84.75,10.24-18.86,10.58-19.77,14.39-38.48,8.8-76.15,7.21-76.18C1198.19,608.58,1198.75,618,1194.31,635.28Zm29.76-43c10.8-8.75,14.07-18.11,21.24-31.53A237.07,237.07,0,0,1,1269,524.9c10.72-5.92,36.56-22.12,52.33-54.48a122.81,122.81,0,0,0,12.18-48c27.48-38.63,39.13-74.12,26.53-88.89-.91-1.07-4.69-5.5-10-5.74-17.29-.78-26,43.42-45.88,83.87-38,77.32-103.75,114.1-109,164.88-.55,5.39-2.08,20.34,5,24.37C1208,605.31,1221.86,594.06,1224.07,592.27Zm55.54-241.56c4.48-2.65,7.82-2.26,10.27-5.25s2.27-7.44,1.67-10.64a25.54,25.54,0,0,1,19.83-4.42c-.48.68-4.43,6.36-2.26,12.43s9.81,9.95,12.66,8.12c1.19-.76,1.38-2.41,1.43-8.36.06-6.3-.09-11.5-.24-15.17a4,4,0,0,0,2.75-.72,4.61,4.61,0,0,0,1.08-5.38,8.6,8.6,0,0,0,6-1.79,9.1,9.1,0,0,0,2.65-9.6,21.64,21.64,0,0,0,18.95,2.85,32.9,32.9,0,0,0,8.37,7.06c9,5.24,18.62,4.93,28.93,3.35,24.81-3.8,49.59-14.33,48.68-17.37-.56-1.88-10.46.87-39,1.29-15.47.24-28.31-.33-35.5-9a21.66,21.66,0,0,1-2.33-3.47A70,70,0,0,0,1393,282.29c10.38-7.65,18.53-18.42,17-20.32-1.36-1.66-9.31,4.46-24.75,10.54a150.25,150.25,0,0,1-25.36,7.49,23.76,23.76,0,0,0-14.37-10.24,10.15,10.15,0,0,0,9.32-8.55c1.26.51,10.6,4.18,19.56-.92a21.62,21.62,0,0,0,8.66-9.37c2.29-.41,19.46-3.78,26.86-19,6.43-13.24,3.43-31.26-6.06-37.67-.29-.19-6.36-4.2-10.32-2-1.23.7-2.76,2.28-4.75,15.07-.64,4.13-1,7.61-1.31,10.15-19.75-19.47-26.63-21.87-29.15-20.14-3.29,2.26-.92,12.8,2.62,19.49a31.87,31.87,0,0,0,10.15,11.3A20.29,20.29,0,0,0,1352.87,239a19,19,0,0,0-18.67-4.28,34.85,34.85,0,0,0,4.64-15c.08-1.16.93-15.25-4.64-17-3.2-1-7.84,2.24-9.8,6.19a11.61,11.61,0,0,0-1,6.71,12.39,12.39,0,0,0-11.35,7.73c-3.56-.21-17.44-.61-29.4,9.29-18,14.86-14.64,38.91-14.44,40.23a66.61,66.61,0,0,0-15.47,25.78,67.33,67.33,0,0,0-1,37.14,61.18,61.18,0,0,0-12.38,20.11,63.36,63.36,0,0,0-1.55,38.16,114.54,114.54,0,0,0-4.64,52.61c-17.83,17.45-19.93,22.9-18.67,24.71.81,1.15,2.8.52,13.62-.72,13.24-1.5,15.57-1.16,17-3.1,4.06-5.65-7.37-19.9-8.48-21.27A46.09,46.09,0,0,0,1251,433.85c11.22-14.81,9.5-31.84,8.93-36.19a37.3,37.3,0,0,0,7.32-9.51c6.29-11.69,4.41-23.4,3.51-27.62A23.65,23.65,0,0,1,1279.61,350.71ZM1005.19,673.27c-.48-1.42-1.12-4.47,2.52-12.27,7.22-15.44,15.58-16,18.14-25.31s-2.41-20.71-10.56-27c-7.29-5.65-17.9-7.77-26-4.16-4.33,1.93-4.82,4.11-11.17,11-11.16,12.14-15.86,12.21-25.78,22.56a118.07,118.07,0,0,0-14.64,20c-7.63,13-9.69,24.5-12.05,101.07-.58,18.71-.82,30.69,5.19,43.29,1.92,4,4.79,10,10.47,20.93,6.21,12,7.08,12.93,8.27,13.86,8.32,6.47,15.93-.65,31.38,4,10.82,3.26,17.91,10,18.81,8.86,1.09-1.38-10.53-9.47-8.66-14.08,2.39-5.86,26.32-5.11,31.68-4.94,3.9.13,8.32.44,11.37-2.47,2.46-2.35,4.3-7.07,2.19-11.09-2-3.82-6.34-4.59-6.9-4.68.66-2.1,2.37-8.22-.5-10.85-.79-.72-1.71-1-6.16-1.47-8.17-.9-9.16-.45-10.35-1.24-4.63-3-.68-16.72-.25-18.24,3.16-11.07,6.08-28.84,4.68-58.18,2.64.77,6.44,1.79,11.1,2.72,7,1.39,8.46,1.11,9.36.24,2.23-2.13,2-7.31-.49-9.61-1.69-1.58-3.46-.89-6.75-2-4.14-1.4-7.85-4.4-7.49-5.33.5-1.26,9,.22,22.6,2.56,3.86.67,6.26,1.13,8.22-.34,3.17-2.37,3.83-8.84,1.17-12.58s-6.87-2.2-16.1-5.1c-2-.63-6.91-3.26-16.62-8.49C1008.33,677.64,1006.18,676.24,1005.19,673.27ZM963.9,426.39c-1.28-1-10.74,4.62-15.1,14.48-7.59,17.21,4.38,38.14,9.06,46.32,10.56,18.46,18.63,18.83,22.46,33.51,3.93,15.09-1.12,28-2.54,31.34-8.6,20.18-31.3,34.87-44,29.86-4-1.59-9.57-6.6-8.79-8.45.32-.77,1.82-1.17,3-.89,1.77.44,1.8,2.35,3.51,3.37,2.09,1.24,5.72.58,7-1.38,1.67-2.5-.75-6.67-2.63-8.69-4.85-5.25-15.69-6.54-20.44-1.3-5.23,5.78-.8,17,5.28,22.41,1.32,1.18,5.77,4.78,15,5.15,16.48.66,35.15-9.43,46-25.52,11.29-16.74,15-41.29,5-57.6-6.21-10.21-12.56-8.66-22.92-23.84C959,478,952.08,467.93,952.4,455.37,952.81,438.74,965.53,427.7,963.9,426.39Zm47.69,34.69c-2.69-.62-12.09,12.71-11.29,25.41,1.12,17.95,21.7,20.35,22,37.5.14,8.26-4.58,11.3-5.44,28-.3,5.84-.64,12.39,1.21,12.91,3.06.86,12.7-14.63,14.11-31.86.62-7.43,1.68-20.39-6.25-29.64-6.76-7.88-15.56-7.75-18.34-16.73-.63-2-2-6.51-.23-11s5.86-6.52,5.67-11C1013,463.59,1012.6,461.32,1011.59,461.08ZM918,465c-1.29.67,1.74,5.33,1.73,15.87,0,6.39-1.13,9.34.47,10.37,2.17,1.39,7.95-1.62,9.74-6C933.55,476.45,920.28,463.79,918,465Zm20.9,56.93c1.85,3.23,5.64,7.82,8,7,2.79-.95,3-9.17,1.1-15.39s-6.78-13.52-9.58-12.73C935.17,501.7,934.06,513.48,938.89,521.89Zm-24.46-14.43c-3.61,2.9-2.26,12.75,3.09,18.14,4.05,4.09,10.6,5.85,12.1,4.09s-1.42-6.4-2.25-7.82c-2.41-4.11-4.29-4.27-5.08-7.37-.85-3.31.84-4.91-.45-6.54C920.41,506.15,916.47,505.82,914.43,507.46Zm75.17-64c-2.18-2.14-6.44-2.31-9.18-.66s-3.43,6-4.42,14.58c-1.21,10.47.28,11.86.82,12.28,2.16,1.67,6,.93,8.35-.82,1.38-1,2.46-2.56,3.93-10.15C990.81,449.85,991.62,445.41,989.6,443.43ZM958.2,251.24c-8.18,6.17-2.5,17.43-11.31,36.75a91.72,91.72,0,0,1-7.22,12.91c-6.56,9.72-11.69,12.63-16.23,25.4-11.42,32.18,4.75,58.87,7.4,62.86,1.24,1.88,3.84,5.27,4.81,4.81,1.2-.57-1.68-6.19-.62-12.19,1.1-6.18,5.91-10,9.49-12.95,15.21-12.6,23.19-19.21,28.1-27.74,7.85-13.62,6-28.9,8.51-28.84,1.24,0,2.09,3.84,2.28,4.8,3,14.67-10,24.46-14.48,40.31-5.6,19.74,3.59,43.29,17.37,54.73,8.65,7.18,11.12,3,21.08,10.35,16,11.89,25.49,34.56,26.62,54.73.76,13.47-2.44,21.55,3.7,27.73s17.54,6.49,18.49,4.44c.51-1.11-1.76-3.48-5.18-7-2-2-3.47-3.31-3.87-3.66-6.25-5.61-.35-21.88-2-39.6a66.79,66.79,0,0,0-3.7-16.27,13.4,13.4,0,0,0,10.72,1.11,13.56,13.56,0,0,0,8.14-8.14c1.09,1.62,6.55,9.35,16.64,11.1,11.14,1.93,21-4.63,20.7-5.92-.17-.72-3.5.28-8.87-.74a30.1,30.1,0,0,1-11.63-5,29.13,29.13,0,0,0-1.31-7.56c-3.21-10.13-11.21-15.31-20-22.19,0,0-8.62-6.77-20.71-18.48-19.88-19.28-35-51.73-34.75-71.37a40.86,40.86,0,0,0-3.7-19.23c-2.19-4.57-4.42-6.76-6.66-9.61-13.27-17-7.74-33.36-17.38-37.72C968,246.94,961.85,248.49,958.2,251.24Zm-19.61-55.47c.63,8.41,2.16,9.71,1.29,14.66-1.21,6.9-4.86,8.22-4.55,14,.26,5,3.26,9.14,4.23,8.89,1.13-.29-.63-6.14,1.6-13.06a17.79,17.79,0,0,1,5.09-7.64c3.58,9.15,8.53,14.73,12.11,14,2.67-.53,4.24-4.52,4.46-5.09,2.43-6.22-1.58-11.59.32-13.07s7,2.45,7.93,3.13c9.24,6.89,11.79,15.94,12.46,15.67s-.53-14.66-11.47-22.94a28.32,28.32,0,0,0-11.47-5.09,50.31,50.31,0,0,0-7.33-23.58,19.83,19.83,0,0,0,3.51-9.24c.45-4.39-.73-8.59-1.6-8.6s-.49,5.29-4.14,8a9.78,9.78,0,0,1-4.78,1.59c-4.38.54-6.54-1.39-7.64-.32-1.54,1.5,2.09,5.9.64,7.65s-8-1-10.84-2.23c-8.75-3.9-12.16-7.8-13.06-7-1.11,1,2.1,8.91,8.92,13.06,5.82,3.53,12,3,14.66,2.55A75.64,75.64,0,0,0,938.59,195.77Zm38.51-60.85c5.73,14.39,23.72,19.32,22.51,22.15-.6,1.39-5.27.93-11.08.36-7.32-.73-11-2.25-14.28,0-.8.53-2.68,1.81-2.86,3.57-.7,6.75,25,8.57,41.79,28.21,4.66,5.46,9.74,13.58,7.86,15.72-1.12,1.27-4.48.22-7.51-.72-7.58-2.35-10.67-6.24-12.85-5-1.65.95-1.48,4.09-1.43,5,.14,2.57,1.24,6.46,10,13.93a90.09,90.09,0,0,0,15,10.36q-.9,8-1.79,16.07c-2.29-1.79-15.71-12.15-18.93-9.28-2.46,2.2,1.59,11.69,6.79,17.86a34.5,34.5,0,0,0,13.57,9.64c-6.85,28.75-6.18,47-5,56.79.89,7.35,2.55,13.89,6.79,15.36s9.24-2.75,11.07-4.29c9.32-7.84,42.86-53,31.79-127.15-.74-5-14.89-94.07-57-102.27-1.29-.25-21.55-3.92-31.24,8C974.62,116.2,973.91,126.91,977.1,134.92Zm242.06,904.6c-4.12,2.38-4.93,5.42-8.37,11.71-4.67,8.55-6.19,8.43-11.23,16.63a97.53,97.53,0,0,0-12.15,28.12c-3.75,15.55-2.56,31.69-.23,31.87.85.07,1.86-2,2.59-3.75a369,369,0,0,0,1.53,41.87c4.09,43.59,15.52,81.42,16.8,81.18.34-.06,0-2.89-.54-7.51-5.4-46.31-8-69.86-4.25-89.46a114.38,114.38,0,0,1,12.86-34.47c3.62,1.27,4.85,1.47,5,1.24.26-.4-3-1.66-2.87-3.41.12-1.26,2-2.6,3.84-2.59a4.35,4.35,0,0,1,3.61,2.37c1,1.84.07,4-.78,6.14-.44,1.09-.71,1.41-.65,1.44.27.13,5.86-5.08,4.72-9.34a6.92,6.92,0,0,0-3.59-3.89,44,44,0,0,0,3.73-8.45c4.64-14.49-.16-26.33,3.74-40.28,1.73-6.21,3.41-6.45,3.75-6.47,1-.06,1.89,1.09,2.22,1.67a3.48,3.48,0,0,1-.21,3.47,12.93,12.93,0,0,0,2.59-2.77c.85-1.23,2.48-3.63,1.91-6.53a8.25,8.25,0,0,0-4-5.17,10.2,10.2,0,0,0-3.88-4.42C1230.46,1035.73,1223.4,1037.07,1219.16,1039.52Zm208.15,259.31c-26.43-2.61-32.89-7-35.25-4.08-6.33,7.86,27.73,55.3,40.82,50.09,9.79-3.9,10.83-38.47-1.11-44.9A10.71,10.71,0,0,0,1427.31,1298.83Zm-260.14-151.75c-8.74-3.73-17.32-4.22-20.59-.27-4.3,5.17,1.63,16.67,5.6,22.3,8.57,12.12,20.43,14.51,19.72,20.74-.36,3.21-3.58,3.15-5.58,6.75-6.72,12.08,17.53,34.29,13.37,39.63-1.27,1.64-5.52,2.08-19.29-4.08" transform="translate(-252.54 -100.5)"/><text class="cls-1" transform="translate(1203.05 224.88)"></text></svg>